<?xml version="1.0" encoding="utf-8"?>
<!-- Generator: Adobe Illustrator 16.0.0, SVG Export Plug-In . SVG Version: 6.00 Build 0)  -->
<!DOCTYPE svg PUBLIC "-//W3C//DTD SVG 1.1//EN" "http://www.w3.org/Graphics/SVG/1.1/DTD/svg11.dtd">
<svg version="1.1" id="圖層_1" xmlns="http://www.w3.org/2000/svg" xmlns:xlink="http://www.w3.org/1999/xlink" x="0px" y="0px"
	 width="46px" height="75px" viewBox="24 0 46 75" enable-background="new 24 0 46 75" xml:space="preserve">
<rect fill="none" width="94" height="75"/>
<g>
	<linearGradient id="SVGID_1_" gradientUnits="userSpaceOnUse" x1="24.3989" y1="42.4492" x2="69.6006" y2="42.4492">
		<stop  offset="0" style="stop-color:#E65761"/>
		<stop  offset="1" style="stop-color:#F58255"/>
	</linearGradient>
	<path fill="url(#SVGID_1_)" d="M61.262,29.978c-0.979,0.226-2.112,1.231-2.961,0.104c-0.707-0.935-0.072-2.068,0.343-3.054
		c1.77-4.175,4.161-7.982,6.883-11.603c0.435-0.58,1.199-1.205,0.622-1.959c-0.551-0.734-1.406-0.219-2.105-0.032
		c-2.555,0.696-4.842,2.056-6.689,3.808c-6.941,6.578-14.503,7.255-22.857,3.016c-1.958-0.992-4.064-1.804-6.365-1.991
		c-0.077,1.295,0.785,1.74,1.329,2.358c4.069,4.6,7.745,9.49,10.952,14.722c2.443,3.994,1.206,6.204-3.538,6.526
		c-2.509,0.174-4.926-0.373-7.382-0.715c-3.513-0.49-5.541,1.623-5.01,5.141c0.531,3.473,2.365,6.218,5.14,8.273
		c2.936,2.178,5.884,4.4,9.079,6.152c4.35,2.391,7.531,5.167,5.729,10.946h-0.007c0.357,0.045,0.707,0.097,1.063,0.147
		c1.452-1.571,2.936-3.105,4.334-4.709c4.732-5.425,9.6-10.753,13.52-16.809c2.438-3.77,5.102-7.48,6.061-12.004
		C70.556,32.845,66.524,28.754,61.262,29.978z"/>
	<linearGradient id="SVGID_2_" gradientUnits="userSpaceOnUse" x1="38.6216" y1="7.3418" x2="53.458" y2="7.3418">
		<stop  offset="0" style="stop-color:#E65761"/>
		<stop  offset="1" style="stop-color:#F58255"/>
	</linearGradient>
	<path fill="url(#SVGID_2_)" d="M46.174,14.683c4.16-0.097,7.284-3.298,7.284-7.46c0-4.091-3.306-7.3-7.433-7.223
		c-4.128,0.078-7.492,3.434-7.401,7.384C38.721,11.359,42.259,14.78,46.174,14.683z"/>
</g>
</svg>
