<svg width="49" height="49" viewBox="0 0 49 49" fill="none" xmlns="http://www.w3.org/2000/svg">
<circle cx="24.5" cy="24.5" r="23.5" stroke="white"/>
<path d="M33.9008 20.221C33.9008 20.221 33.7054 18.8486 33.1039 18.246C32.3422 17.4529 31.4906 17.449 31.1 17.4024C28.3031 17.2002 24.1039 17.2002 24.1039 17.2002H24.0961C24.0961 17.2002 19.8969 17.2002 17.1 17.4024C16.7094 17.449 15.8578 17.4529 15.0961 18.246C14.4945 18.8486 14.3031 20.221 14.3031 20.221C14.3031 20.221 14.1 21.8345 14.1 23.444V24.9525C14.1 26.562 14.2992 28.1755 14.2992 28.1755C14.2992 28.1755 14.4945 29.5479 15.0922 30.1505C15.8539 30.9436 16.8539 30.9164 17.2992 31.0019C18.9008 31.1535 24.1 31.2002 24.1 31.2002C24.1 31.2002 28.3031 31.1924 31.1 30.9941C31.4906 30.9475 32.3422 30.9436 33.1039 30.1505C33.7054 29.5479 33.9008 28.1755 33.9008 28.1755C33.9008 28.1755 34.1 26.5659 34.1 24.9525V23.444C34.1 21.8345 33.9008 20.221 33.9008 20.221ZM22.0336 26.7836V21.1891L27.4359 23.9961L22.0336 26.7836Z" fill="white"/>
</svg>
