<svg width="49" height="48" viewBox="0 0 49 48" fill="none" xmlns="http://www.w3.org/2000/svg">
<circle cx="24.5" cy="24" r="23.5" stroke="white"/>
<path fill-rule="evenodd" clip-rule="evenodd" d="M34.1 24.0295C34.1 18.7117 29.6223 14.3999 24.1 14.3999C18.5777 14.3999 14.1 18.7117 14.1 24.0295C14.1 28.8358 17.7562 32.8196 22.5375 33.5427V26.814H19.9977V24.0295H22.5375V21.908C22.5375 19.495 24.0308 18.161 26.3147 18.161C27.4089 18.161 28.5535 18.3493 28.5535 18.3493V20.7193H27.2919C26.0504 20.7193 25.662 21.4613 25.662 22.224V24.0295H28.4352L27.9924 26.814H25.6625V33.5435C30.4437 32.8209 34.1 28.837 34.1 24.0295Z" fill="white"/>
</svg>
