<?xml version="1.0" encoding="utf-8"?>
<!-- Generator: Adobe Illustrator 16.0.0, SVG Export Plug-In . SVG Version: 6.00 Build 0)  -->
<!DOCTYPE svg PUBLIC "-//W3C//DTD SVG 1.1//EN" "http://www.w3.org/Graphics/SVG/1.1/DTD/svg11.dtd">
<svg version="1.1" id="圖層_1" xmlns="http://www.w3.org/2000/svg" xmlns:xlink="http://www.w3.org/1999/xlink" x="0px" y="0px"
	 width="11px" height="20px" viewBox="0 0 11 20" enable-background="new 0 0 11 20" xml:space="preserve">
<path fill="#FFFFFF" d="M0.22,0.22C0.15,0.29,0.094,0.373,0.057,0.464C0.019,0.555,0,0.653,0,0.751s0.019,0.196,0.057,0.288
	C0.094,1.13,0.15,1.213,0.22,1.282l8.47,8.469l-8.47,8.469C0.079,18.361,0,18.553,0,18.752s0.079,0.39,0.22,0.53
	c0.141,0.142,0.332,0.22,0.531,0.22s0.39-0.078,0.531-0.22l9-9c0.07-0.069,0.125-0.152,0.164-0.243
	c0.037-0.091,0.057-0.189,0.057-0.288s-0.02-0.196-0.057-0.288c-0.039-0.091-0.094-0.174-0.164-0.244l-9-9
	c-0.07-0.07-0.152-0.125-0.244-0.163C0.947,0.02,0.849,0,0.75,0S0.554,0.02,0.463,0.057C0.372,0.095,0.289,0.15,0.22,0.22z"/>
</svg>
