<svg width="16" height="21" viewBox="0 0 16 21" fill="none" xmlns="http://www.w3.org/2000/svg">
<path d="M7.875 21C7.875 21 15.75 13.5371 15.75 7.875C15.75 5.78642 14.9203 3.78338 13.4435 2.30653C11.9666 0.829685 9.96358 0 7.875 0C5.78642 0 3.78338 0.829685 2.30653 2.30653C0.829685 3.78338 3.11223e-08 5.78642 0 7.875C0 13.5371 7.875 21 7.875 21ZM7.875 11.8125C6.83071 11.8125 5.82919 11.3977 5.09077 10.6592C4.35234 9.92081 3.9375 8.91929 3.9375 7.875C3.9375 6.83071 4.35234 5.82919 5.09077 5.09077C5.82919 4.35234 6.83071 3.9375 7.875 3.9375C8.91929 3.9375 9.92081 4.35234 10.6592 5.09077C11.3977 5.82919 11.8125 6.83071 11.8125 7.875C11.8125 8.91929 11.3977 9.92081 10.6592 10.6592C9.92081 11.3977 8.91929 11.8125 7.875 11.8125Z" fill="white"/>
</svg>
