<?xml version="1.0" encoding="utf-8"?>
<!-- Generator: Adobe Illustrator 16.0.0, SVG Export Plug-In . SVG Version: 6.00 Build 0)  -->
<!DOCTYPE svg PUBLIC "-//W3C//DTD SVG 1.1//EN" "http://www.w3.org/Graphics/SVG/1.1/DTD/svg11.dtd">
<svg version="1.1" id="圖層_1" xmlns="http://www.w3.org/2000/svg" xmlns:xlink="http://www.w3.org/1999/xlink" x="0px" y="0px"
	 width="49px" height="49px" viewBox="0 0 49 49" enable-background="new 0 0 49 49" xml:space="preserve">
<g>
	<path fill="#FF6D6D" d="M24.14,0.5L24.14,0.5C11.084,0.5,0.5,11.084,0.5,24.14l0,0c0,13.056,10.584,23.64,23.64,23.64l0,0
		c13.056,0,23.64-10.584,23.64-23.64l0,0C47.779,11.084,37.195,0.5,24.14,0.5z"/>
</g>
<g>
	<path fill="#FF6D6D" d="M24.14,48.279C10.829,48.279,0,37.45,0,24.14S10.829,0,24.14,0s24.14,10.829,24.14,24.14
		S37.45,48.279,24.14,48.279z M24.14,1C11.38,1,1,11.38,1,24.14c0,12.759,10.38,23.14,23.14,23.14
		c12.759,0,23.14-10.381,23.14-23.14C47.279,11.38,36.898,1,24.14,1z"/>
</g>
<g>
	<path fill="#FFFFFF" d="M28.01,23.235l-10.141,0.188l0.031,1.666l10.142-0.188l-4.386,4.553l1.2,1.156l6.36-6.602l-6.601-6.36
		l-1.156,1.2L28.01,23.235z"/>
</g>
</svg>
