<svg width="203" height="60" viewBox="0 0 203 60" fill="none" xmlns="http://www.w3.org/2000/svg">
<g clip-path="url(#clip0_40002493_9292)">
<g clip-path="url(#clip1_40002493_9292)">
<path d="M194.671 59.7002H8.10862C4.00424 59.7002 0.646118 56.3421 0.646118 52.2377V7.4627C0.646118 3.35833 4.00424 0.000200987 8.10862 0.000200987H194.671C198.775 0.000200987 202.134 3.35833 202.134 7.4627V52.2377C202.134 56.3421 198.775 59.7002 194.671 59.7002Z" fill="#1A1A1A"/>
<path d="M194.671 0.000200987H8.10862C4.00424 0.000200987 0.646118 3.35833 0.646118 7.4627V52.2377C0.646118 56.3421 4.00424 59.7002 8.10862 59.7002H194.671C198.775 59.7002 202.134 56.3421 202.134 52.2377V7.4627C202.134 3.35833 198.775 0.000200987 194.671 0.000200987ZM194.671 1.1936C198.128 1.1936 200.94 4.00607 200.94 7.4627V52.2377C200.94 55.6944 198.128 58.5068 194.671 58.5068H8.10862C4.65196 58.5068 1.8407 55.6944 1.8407 52.2377V7.4627C1.8407 4.00607 4.65196 1.1936 8.10862 1.1936H194.671Z" fill="white" fill-opacity="0.2"/>
<path d="M31.5665 28.991L15.6766 45.8563C15.6772 45.8598 15.6784 45.8627 15.679 45.8662C16.1663 47.6974 17.839 49.0459 19.8241 49.0459C20.6177 49.0459 21.3628 48.8314 22.0017 48.4547L22.0524 48.425L39.9386 38.104L31.5665 28.991" fill="#EB3131"/>
<path d="M47.6424 26.1189L47.6272 26.1085L39.9053 21.632L31.2057 29.3733L39.9356 38.1021L47.6168 33.6701C48.9635 32.9431 49.8776 31.5234 49.8776 29.8863C49.8776 28.261 48.9757 26.8483 47.6424 26.1189" fill="#F6B60B"/>
<path d="M15.676 13.8464C15.5805 14.1987 15.5303 14.5676 15.5303 14.9507V44.7524C15.5303 45.1348 15.5799 45.505 15.6766 45.856L32.1134 29.4222L15.676 13.8464Z" fill="#5778C5"/>
<path d="M31.6837 29.8516L39.9083 21.6294L22.0424 11.2711C21.393 10.8822 20.6352 10.6577 19.8241 10.6577C17.839 10.6577 16.1641 12.0086 15.6766 13.8421C15.676 13.8439 15.676 13.8451 15.676 13.8467L31.6837 29.8516Z" fill="#3BAD49"/>
</g>
<path d="M148.101 30.0001H150.534V13.6907H148.101V30.0001ZM170.028 19.5658L167.237 26.6367H167.154L164.258 19.5658H161.634L165.978 29.4486L163.501 34.9459H166.04L172.734 19.5658H170.028ZM156.221 28.1479C155.424 28.1479 154.312 27.7491 154.312 26.7626C154.312 25.5038 155.697 25.0212 156.892 25.0212C157.963 25.0212 158.466 25.2519 159.116 25.5668C158.928 27.0774 157.627 28.1479 156.221 28.1479ZM156.515 19.2089C154.752 19.2089 152.927 19.9855 152.172 21.7061L154.333 22.6086C154.794 21.7061 155.655 21.4122 156.557 21.4122C157.816 21.4122 159.095 22.1677 159.116 23.5106V23.6785C158.676 23.4265 157.731 23.0488 156.577 23.0488C154.249 23.0488 151.877 24.3291 151.877 26.7206C151.877 28.9028 153.786 30.3085 155.927 30.3085C157.564 30.3085 158.466 29.5744 159.033 28.714H159.116V29.9732H161.467V23.7204C161.467 20.8244 159.306 19.2089 156.515 19.2089V19.2089ZM141.47 21.5516H138.009V15.9609H141.47C143.291 15.9609 144.324 17.4674 144.324 18.7559C144.324 20.02 143.291 21.5516 141.47 21.5516V21.5516ZM141.407 13.6907H135.575V30.0001H138.009V23.8213H141.407C144.106 23.8213 146.758 21.8676 146.758 18.7559C146.758 15.6443 144.106 13.6907 141.407 13.6907V13.6907ZM109.6 28.1507C107.919 28.1507 106.51 26.7428 106.51 24.8089C106.51 22.854 107.919 21.425 109.6 21.425C111.26 21.425 112.564 22.854 112.564 24.8089C112.564 26.7428 111.26 28.1507 109.6 28.1507ZM112.395 20.4794H112.311C111.765 19.8276 110.714 19.2392 109.39 19.2392C106.615 19.2392 104.072 21.6774 104.072 24.8089C104.072 27.9194 106.615 30.3365 109.39 30.3365C110.714 30.3365 111.765 29.7482 112.311 29.0755H112.395V29.8741C112.395 31.997 111.26 33.1321 109.432 33.1321C107.94 33.1321 107.014 32.06 106.637 31.1562L104.513 32.0389C105.123 33.5106 106.742 35.3179 109.432 35.3179C112.29 35.3179 114.707 33.6364 114.707 29.5377V19.575H112.395V20.4794ZM116.389 30.0001H118.826V13.6907H116.389V30.0001ZM122.421 24.6194C122.358 22.4762 124.081 21.3831 125.321 21.3831C126.288 21.3831 127.108 21.8664 127.381 22.5601L122.421 24.6194ZM129.987 22.7701C129.525 21.53 128.117 19.2392 125.237 19.2392C122.379 19.2392 120.004 21.488 120.004 24.7879C120.004 27.8983 122.358 30.3365 125.51 30.3365C128.053 30.3365 129.525 28.781 130.134 27.8773L128.243 26.6162C127.612 27.5415 126.75 28.1507 125.51 28.1507C124.27 28.1507 123.387 27.5835 122.82 26.4694L130.24 23.4009L129.987 22.7701ZM70.8775 20.9417V23.2953H76.51C76.3421 24.6194 75.9008 25.5867 75.2279 26.2589C74.4082 27.0786 73.1261 27.9828 70.8775 27.9828C67.4097 27.9828 64.6981 25.1873 64.6981 21.7195C64.6981 18.251 67.4097 15.4561 70.8775 15.4561C72.7478 15.4561 74.1145 16.1912 75.123 17.1374L76.7835 15.477C75.3756 14.132 73.5047 13.1017 70.8775 13.1017C66.1276 13.1017 62.1339 16.9689 62.1339 21.7195C62.1339 26.4694 66.1276 30.3365 70.8775 30.3365C73.4417 30.3365 75.3756 29.4958 76.8884 27.9194C78.4439 26.3644 78.9273 24.178 78.9273 22.4126C78.9273 21.8664 78.8853 21.362 78.8014 20.9417H70.8775ZM85.3312 28.1507C83.6491 28.1507 82.1991 26.7637 82.1991 24.7879C82.1991 22.791 83.6491 21.425 85.3312 21.425C87.0126 21.425 88.4626 22.791 88.4626 24.7879C88.4626 26.7637 87.0126 28.1507 85.3312 28.1507ZM85.3312 19.2392C82.2621 19.2392 79.7611 21.5719 79.7611 24.7879C79.7611 27.9828 82.2621 30.3365 85.3312 30.3365C88.3996 30.3365 90.9008 27.9828 90.9008 24.7879C90.9008 21.5719 88.3996 19.2392 85.3312 19.2392ZM97.4814 28.1507C95.7999 28.1507 94.3494 26.7637 94.3494 24.7879C94.3494 22.791 95.7999 21.425 97.4814 21.425C99.1629 21.425 100.613 22.791 100.613 24.7879C100.613 26.7637 99.1629 28.1507 97.4814 28.1507ZM97.4814 19.2392C94.4124 19.2392 91.9118 21.5719 91.9118 24.7879C91.9118 27.9828 94.4124 30.3365 97.4814 30.3365C100.55 30.3365 103.051 27.9828 103.051 24.7879C103.051 21.5719 100.55 19.2392 97.4814 19.2392Z" fill="white"/>
<path d="M71.2495 43.1124C71.2151 43.191 71.1142 43.258 70.9684 43.268C70.6332 44.7477 70.0047 46.9322 69.4789 48.1654L68.8072 47.9748C69.2999 46.6979 69.8713 44.4445 70.1628 42.8762L71.2495 43.1124ZM65.3441 42.9665C65.9265 44.4795 66.3305 46.4064 66.3975 47.6949C66.3189 47.6949 66.2402 47.7065 65.624 47.8628C65.5802 46.5958 65.1762 44.6474 64.6263 43.1455L65.3441 42.9665ZM72.5719 41.611V42.3497H63.1133V41.611H67.3829V39.3245L68.381 39.3927C68.3693 39.4695 68.3128 39.5267 68.1566 39.5489V41.611H72.5719ZM62.7216 48.4791H72.8848V49.23H62.7216V48.4791Z" fill="white"/>
<path d="M71.2494 43.1125L71.113 43.0518L70.9579 43.1194L70.8472 43.127L70.8227 43.2355C70.4897 44.7064 69.8608 46.891 69.3418 48.1072L69.4788 48.1655L69.5196 48.0221L68.8473 47.8315L68.8072 47.9749L68.946 48.0285C69.445 46.7348 70.0158 44.4813 70.309 42.9037L70.1627 42.8764L70.1306 43.0221L71.2179 43.2582L71.2494 43.1125L71.113 43.0518L71.2494 43.1125L71.2815 42.9667L70.1942 42.7306L70.0438 42.6979L70.0158 42.8489C69.726 44.4079 69.1541 46.6613 68.6678 47.9212L68.609 48.074L69.4379 48.3095L69.5645 48.3451L69.6164 48.2245C70.1487 46.9745 70.7766 44.7898 71.1142 43.3013L70.9684 43.2682L70.979 43.4175C71.1638 43.4034 71.3176 43.32 71.3858 43.1731L71.4605 43.0058L71.2815 42.9667L71.2494 43.1125ZM65.3441 42.9667L65.2047 43.0203C65.7812 44.5146 66.1836 46.4363 66.2482 47.7025L66.3975 47.6951V47.5458C66.2885 47.5469 66.2029 47.5627 65.5872 47.7178L65.6239 47.863L65.7726 47.8578C65.727 46.5663 65.3218 44.6131 64.7669 43.0943L64.6263 43.1457L64.663 43.2909L65.3802 43.1113L65.3441 42.9667L65.2047 43.0203L65.3441 42.9667L65.3073 42.8221L64.5908 43.001L64.4293 43.0413L64.4864 43.1976C65.0303 44.6813 65.4327 46.6258 65.4747 47.8676L65.4811 48.0524L65.66 48.0075C66.2781 47.8507 66.3491 47.8431 66.3975 47.8443H66.555L66.5467 47.6875C66.4779 46.3769 66.0723 44.444 65.4827 42.9131L65.4356 42.79L65.3073 42.8221L65.3441 42.9667ZM72.5718 41.6112H72.4226V42.2006H63.2626V41.7604H67.5321V39.4843L68.3711 39.5415L68.3809 39.3928L68.2335 39.3706L68.2329 39.3724L68.1361 39.4009L68.0073 39.4189V41.7604H72.5718V41.6112H72.4226H72.5718V41.4619H68.3059V39.5491H68.1566L68.1775 39.6966C68.3554 39.6825 68.5127 39.5682 68.5291 39.4149L68.553 39.2552L67.3927 39.1754L67.2336 39.1642V41.4619H62.9641V42.3498V42.4991H72.7211V41.6112V41.4619H72.5718V41.6112ZM62.7215 48.4792V48.6285H72.7355V49.0809H62.8708V48.4792H62.7215V48.6285V48.4792H62.5723V49.2301V49.3794H73.0341V48.4792V48.33H62.5723V48.4792H62.7215Z" fill="white"/>
<path d="M83.9156 39.9524V46.8875C83.9156 47.8523 83.4335 47.8745 81.832 47.8745C81.7981 47.6611 81.6745 47.3032 81.562 47.0903C81.9322 47.1002 82.2792 47.1118 82.5368 47.1118C83.0866 47.1118 83.1536 47.1118 83.1536 46.8757V40.7027H80.632V49.7344H79.8695V39.9524H83.9156ZM75.512 44.4341H78.1105V42.8763H75.512V44.4341ZM78.1105 40.6694H75.512V42.1923H78.1105V40.6694ZM77.7636 47.2344C77.4272 46.7533 77.0581 46.2723 76.688 45.8683L77.271 45.5436C78.1007 46.4502 78.985 47.6715 79.3651 48.4908L78.739 48.8592C78.6044 48.5578 78.3922 48.1875 78.156 47.8075C76.7887 48.243 75.3878 48.6802 74.4813 48.9502L74.3354 49.1292L73.9984 48.243C74.2345 48.1875 74.5033 48.1205 74.7942 48.0418V39.9524H78.8171V45.14H75.512V47.8523L77.7636 47.2344" fill="white"/>
<path d="M83.9156 39.9521H83.7664V46.8872C83.7553 47.3552 83.6755 47.4935 83.4201 47.6036C83.1491 47.7139 82.6307 47.7267 81.8321 47.7249V47.8742L81.9789 47.8509C81.9398 47.6106 81.8156 47.2539 81.6938 47.02L81.562 47.09L81.558 47.2393C81.9276 47.2491 82.275 47.2608 82.5368 47.2608C82.8144 47.2591 82.9641 47.2661 83.1001 47.223L83.2709 47.0732L83.3029 46.8754V40.5532H80.4828V49.5848H80.0188V40.1014H83.9156V39.9521H83.7664H83.9156V39.8029H79.7203V49.8833H80.632H80.7813V40.8523H83.0044V46.8754L82.9986 46.9506L83.0219 46.9618L83.0091 46.9384L82.9986 46.9506L83.0219 46.9618L83.0091 46.9384C83.0068 46.95 82.8435 46.967 82.5368 46.9623C82.2832 46.9623 81.937 46.9506 81.5661 46.9408L81.3107 46.9332L81.4297 47.1594C81.5329 47.3512 81.6565 47.7115 81.6844 47.8969L81.7043 48.0235H81.8321C82.6343 48.0211 83.1583 48.0235 83.5292 47.8812C83.9152 47.739 84.0767 47.3839 84.0649 46.8872V39.8029H83.9156V39.9521ZM75.512 44.4338V44.5836H78.2598V42.7267H75.3628V44.4338V44.5836H75.512V44.4338H75.6613V43.0252H77.9613V44.2845H75.512V44.4338H75.6613H75.512ZM78.1106 40.6691V40.5199H75.3628V42.3412H78.2598V40.6691V40.5199H78.1106V40.6691H77.9613V42.0427H75.6613V40.8184H78.1106V40.6691H77.9613H78.1106ZM77.7637 47.234L77.8861 47.1484C77.5468 46.6638 77.1747 46.1782 76.7982 45.7678L76.688 45.8679L76.7609 45.9985L77.3438 45.6739L77.271 45.5433L77.1609 45.6441C77.9812 46.539 78.8626 47.7593 79.23 48.5535L79.3652 48.4905L79.29 48.3615L78.6632 48.7306L78.7391 48.8588L78.8755 48.7982C78.7355 48.4852 78.5204 48.1115 78.2825 47.7278L78.2213 47.6293L78.1106 47.6648C76.744 48.1003 75.3435 48.537 74.4386 48.8064L74.3944 48.8199L74.3832 48.8337L74.1385 48.1896L73.9985 48.2427L74.0329 48.3878C74.2707 48.3318 74.5407 48.2648 74.8334 48.1855L74.9435 48.1558V40.1014H78.6679V44.9905H75.3628V48.0479L78.0074 47.3221L77.8861 47.1484L77.7637 47.234L77.724 47.09L75.6613 47.6561V45.289H78.9664V39.8029H74.645V48.0415H74.7943L74.7558 47.8975C74.4661 47.9755 74.1991 48.0421 73.9647 48.0975L73.7985 48.1366L74.1961 49.182L74.2877 49.4239L74.5973 49.0437L74.4813 48.9499L74.5238 49.0927C75.4322 48.8221 76.8331 48.3849 78.2008 47.9488L78.1561 47.8072L78.0289 47.8852C78.2632 48.263 78.4738 48.6297 78.6026 48.9202L78.6703 49.0729L79.441 48.6193L79.5576 48.5505L79.501 48.4275C79.1076 47.5833 78.2195 46.3606 77.3811 45.4424L77.3013 45.3555L76.615 45.7379L76.4501 45.83L76.5777 45.9688C76.9416 46.3658 77.3071 46.8423 77.6411 47.3197L77.7637 47.234L77.724 47.09L77.7637 47.234" fill="white"/>
<path d="M95.4368 40.9161H90.6852L90.5628 40.9492V42.8995L90.6182 42.8325C92.0407 43.5262 93.8783 44.568 94.8083 45.2852L94.2825 45.9574C93.4743 45.3074 91.9067 44.3559 90.5628 43.6388V49.7227H89.767V40.9161H85.34V40.165H95.4368V40.9161" fill="white"/>
<path d="M95.4368 40.9163V40.767H90.6647L90.5231 40.8055L90.4135 40.8358V43.3148L90.7329 42.9276L90.6181 42.8327L90.5522 42.9667C91.9672 43.6558 93.8048 44.6994 94.7174 45.4037L94.8083 45.2854L94.6911 45.1939L94.1646 45.8655L94.2825 45.9576L94.3757 45.8416C93.5525 45.1792 91.9829 44.2277 90.6326 43.5071L90.4135 43.39V49.5736H89.9162V40.767H85.4892V40.3145H95.2875V40.9163H95.4368V40.767V40.9163H95.586V40.1652V40.016H85.1907V40.9163V41.0655H89.6177V49.8721H90.5628H90.712V43.6389H90.5628L90.4922 43.7701C91.8296 44.4831 93.3974 45.4364 94.1886 46.0736L94.3063 46.1686L94.9254 45.3774L95.0181 45.2591L94.8992 45.1676C93.9519 44.4376 92.1135 43.397 90.6834 42.6985L90.5772 42.6471L90.4472 42.8046L90.5628 42.8997H90.712V41.0631L90.7243 41.0597L90.6851 40.9163V41.0655H95.586V40.9163H95.4368" fill="white"/>
<path d="M104.65 39.4917C105.243 39.9407 105.949 40.5907 106.263 41.0397L105.702 41.4758C105.389 41.0046 104.705 40.3329 104.112 39.8619L104.65 39.4917ZM101.186 46.8437V46.148H99.6969V46.8437H101.186ZM101.186 45.6892V45.0053H99.6969V45.6892H101.186ZM97.6465 46.148V46.8437H99.0917V46.148H97.6465ZM97.6465 45.0053V45.6892H99.0917V45.0053H97.6465ZM103.383 42.5059C103.484 43.9297 103.663 45.2403 103.921 46.3043C104.537 45.3423 105.018 44.2667 105.377 43.1455L106.252 43.3922L106.016 43.5146C105.589 44.838 104.974 46.1149 104.179 47.2343C104.548 48.3216 105.018 48.995 105.589 48.995C105.926 48.995 106.061 48.4235 106.128 47.0215C106.285 47.1789 106.543 47.3585 106.733 47.415C106.598 49.1961 106.33 49.7343 105.534 49.7343C104.717 49.7343 104.101 49.0504 103.641 47.9194C103.07 48.6247 102.408 49.241 101.669 49.7343C101.545 49.5547 101.321 49.3186 101.119 49.1728C101.399 48.995 101.679 48.792 101.938 48.5792H99.7302V49.7441H99.0468V48.5792H96.5708V47.9747H99.0468V47.3129H97.0627V44.5349H99.0468V43.8847H96.7498V43.3018H99.0468V42.5515L99.9651 42.6197C99.9545 42.6867 99.8863 42.7421 99.7425 42.7643V43.3018H102.094V43.8847H99.7425V44.5349H101.791V47.3129H99.7302V47.9747H102.14V48.4119C102.576 48.0195 102.991 47.5713 103.361 47.0903C102.991 45.8467 102.766 44.255 102.644 42.5059H96.436V41.8559H99.0468V40.8822H96.9404V40.2537H99.0468V39.3138L99.9983 39.3692C99.9884 39.448 99.9313 39.5034 99.7756 39.5267V40.2537H101.87V40.8822H99.7756V41.8559H102.61C102.565 41.0397 102.532 40.1873 102.532 39.3361C103.282 39.3692 103.405 39.381 103.518 39.3926C103.518 39.4812 103.45 39.5367 103.293 39.5606C103.293 40.3447 103.305 41.1067 103.338 41.8559H106.598V42.5059H103.383" fill="white"/>
<path d="M104.65 39.4917L104.56 39.6107C105.142 40.0508 105.846 40.702 106.141 41.1253L106.263 41.0396L106.172 40.9218L105.61 41.3574L105.702 41.4757L105.826 41.3929C105.495 40.8968 104.809 40.2257 104.205 39.7447L104.112 39.8618L104.197 39.9848L104.734 39.6147L104.65 39.4917L104.56 39.6107L104.65 39.4917L104.565 39.3687L104.027 39.7389L103.861 39.8532L104.019 39.979C104.601 40.4396 105.282 41.1124 105.578 41.5578L105.667 41.692L106.354 41.1574L106.467 41.0705L106.385 40.9539C106.051 40.4793 105.343 39.8304 104.74 39.3727L104.654 39.3074L104.565 39.3687L104.65 39.4917ZM101.186 46.8436H101.336V45.9987H99.5476V46.8436V46.9929H101.186H101.336V46.8436H101.186V46.6944H99.8461V46.2972H101.037V46.8436H101.186V46.6944V46.8436ZM101.186 45.6892H101.336V44.856H99.5476V45.6892V45.8384H101.186H101.336V45.6892H101.186V45.5399H99.8461V45.1545H101.037V45.6892H101.186V45.5399V45.6892ZM97.6464 46.148H97.4972V46.9929H99.2409V46.148V45.9987H97.6464H97.4972V46.148H97.6464V46.2972H98.9424V46.6944H97.7957V46.148H97.6464V46.2972V46.148ZM97.6464 45.0053H97.4972V45.8384H99.2409V45.0053V44.856H97.6464H97.4972V45.0053H97.6464V45.1545H98.9424V45.5399H97.7957V45.0053H97.6464V45.1545V45.0053ZM103.383 42.5059L103.234 42.5163C103.336 43.9465 103.515 45.2636 103.776 46.3393L103.858 46.6786L104.047 46.3847C104.671 45.4099 105.157 44.3226 105.519 43.1915L105.377 43.1454L105.336 43.2895L106.211 43.5354L106.252 43.3921L106.183 43.2598L105.947 43.3821L105.892 43.4102L105.873 43.469C105.452 44.7792 104.843 46.0424 104.057 47.148L104.013 47.2098L104.037 47.282C104.225 47.8353 104.439 48.2883 104.69 48.6136C104.939 48.9372 105.241 49.1442 105.589 49.1442L105.922 48.9774C106.154 48.672 106.22 48.0895 106.277 47.0284L106.128 47.0214L106.022 47.1269C106.199 47.3006 106.458 47.4854 106.69 47.5578L106.733 47.415L106.583 47.4038C106.518 48.2877 106.414 48.8562 106.249 49.1745C106.079 49.4865 105.901 49.5756 105.534 49.585C104.815 49.589 104.234 48.9786 103.779 47.8633L103.684 47.6289L103.525 47.8254C102.962 48.5203 102.312 49.1262 101.586 49.6101L101.669 49.7342L101.792 49.649C101.655 49.452 101.427 49.2118 101.207 49.052L101.119 49.1727L101.199 49.2987C101.484 49.1174 101.769 48.9115 102.032 48.6947L102.353 48.4299H99.5809V49.5948H99.196V48.5792V48.4299H96.7194L96.72 48.1239H99.196V47.3129V47.1636H97.212V44.6841H99.0467H99.196V43.8847V43.7354H96.899V43.4509H99.196V42.7117L99.9541 42.7683L99.9651 42.6196L99.8175 42.5968L99.8496 42.6021L99.8229 42.5839L99.8175 42.5968L99.8496 42.6021L99.8229 42.5839L99.8076 42.5921L99.7196 42.616L99.5932 42.6353V43.3017V43.4509H101.945V43.7354H99.5932V44.5348V44.6841H101.642V47.1636H99.7302H99.5809V47.9747V48.1239H101.99V48.4118V48.7471L102.239 48.5227C102.683 48.1245 103.103 47.6692 103.48 47.1811L103.526 47.1205L103.504 47.0477C103.139 45.8215 102.914 44.2381 102.793 42.4954L102.783 42.3566H96.5853V42.0051H99.196V40.8821V40.7329H97.0902V40.4029H99.0467H99.196V39.4718L99.9902 39.5184L99.9982 39.3692L99.8508 39.3501H99.852H99.8514H99.8508H99.852H99.8514L99.7535 39.3792L99.6263 39.3984V40.2536V40.4029H101.72V40.7329H99.7755H99.6263V41.8559V42.0051H102.768L102.759 41.8477C102.715 41.0332 102.681 40.1832 102.681 39.336H102.532L102.525 39.4847C103.276 39.5184 103.393 39.5296 103.502 39.5412L103.517 39.3926H103.368H103.381L103.373 39.3826L103.368 39.3926H103.381L103.373 39.3826L103.271 39.4123L103.144 39.4315V39.5605C103.144 40.3457 103.155 41.1101 103.189 41.8623L103.195 42.0051H106.449V42.3566H103.223L103.234 42.5163L103.383 42.5059V42.6551H106.747V41.8559V41.7066H103.338V41.8559L103.487 41.8495C103.454 41.1032 103.442 40.3429 103.442 39.5605H103.293L103.315 39.708L103.555 39.6193L103.667 39.3926V39.2578L103.533 39.2439C103.417 39.2321 103.289 39.2199 102.539 39.1868L102.383 39.1798V39.336C102.383 40.1906 102.416 41.046 102.462 41.8639L102.61 41.8559V41.7066H99.9248V41.0314H101.87H102.019V40.2536V40.1044H99.9248V39.5266H99.7755L99.7978 39.6741C99.9727 39.6596 100.134 39.5459 100.146 39.3884L100.167 39.2293L99.0556 39.1645L98.8975 39.1559V40.1044H96.9403H96.7911V40.8821V41.0314H98.8975V41.7066H96.2867V42.5059V42.6551H102.644V42.5059L102.495 42.5163C102.618 44.2718 102.843 45.8717 103.218 47.1321L103.361 47.0902L103.243 46.9987C102.878 47.4726 102.469 47.9151 102.04 48.3011L102.14 48.4118H102.289V47.9747V47.8254H99.8794V47.4621H101.791H101.941V44.3856H99.8917V44.0339H102.243V43.3017V43.1524H99.8911L99.8917 42.7642H99.7424L99.7645 42.9117C99.93 42.8889 100.083 42.809 100.113 42.6417L100.137 42.4826L99.0579 42.4021L98.8975 42.3905V43.1524H96.6005V43.8847V44.0339H98.8975V44.3856H97.0627H96.9135V47.4621H98.8975V47.8254H96.4215V48.5792V48.7284H98.8975V49.7441V49.8933H99.7302H99.8794V48.7284H101.937V48.5792L101.842 48.4644C101.589 48.673 101.314 48.8724 101.04 49.0468L100.854 49.1645L101.032 49.2935C101.214 49.4251 101.435 49.6572 101.546 49.8187L101.63 49.9395L101.751 49.8584C102.504 49.3563 103.177 48.729 103.757 48.013L103.641 47.9193L103.503 47.9753C103.966 49.122 104.619 49.8787 105.534 49.8835C105.963 49.8915 106.317 49.7126 106.514 49.3103C106.715 48.9145 106.813 48.3233 106.882 47.426L106.89 47.3065L106.775 47.2721C106.628 47.2306 106.371 47.0569 106.233 46.9159L105.995 46.6774L105.978 47.0144C105.946 47.7111 105.894 48.1996 105.816 48.4959C105.777 48.6439 105.731 48.7412 105.69 48.7898L105.589 48.8457C105.367 48.8457 105.148 48.7162 104.927 48.4311C104.707 48.1478 104.501 47.7205 104.32 47.1863L104.179 47.2342L104.3 47.3205C105.106 46.1871 105.728 44.8969 106.157 43.5601L106.016 43.5145L106.084 43.6469L106.32 43.5244L106.655 43.3506L105.417 43.002L105.279 42.963L105.235 43.1001C104.879 44.2106 104.404 45.2747 103.796 46.2238L103.921 46.3042L104.066 46.2693C103.811 45.2169 103.632 43.9133 103.532 42.4954L103.383 42.5059V42.6551V42.5059" fill="white"/>
</g>
<defs>
<clipPath id="clip0_40002493_9292">
<rect width="201.94" height="60" fill="white" transform="translate(0.578979)"/>
</clipPath>
<clipPath id="clip1_40002493_9292">
<rect width="201.94" height="60" fill="white" transform="translate(0.646118)"/>
</clipPath>
</defs>
</svg>
