<svg width="16" height="16" viewBox="0 0 16 16" fill="none" xmlns="http://www.w3.org/2000/svg">
<path d="M7.99992 1.33334C8.17673 1.33334 8.3463 1.40358 8.47132 1.52861C8.59635 1.65363 8.66658 1.8232 8.66658 2.00001V2.66668C8.66658 2.84349 8.59635 3.01306 8.47132 3.13808C8.3463 3.26311 8.17673 3.33334 7.99992 3.33334C7.82311 3.33334 7.65354 3.26311 7.52851 3.13808C7.40349 3.01306 7.33325 2.84349 7.33325 2.66668V2.00001C7.33325 1.8232 7.40349 1.65363 7.52851 1.52861C7.65354 1.40358 7.82311 1.33334 7.99992 1.33334ZM12.7139 3.28601C12.8389 3.41103 12.9091 3.58057 12.9091 3.75734C12.9091 3.93412 12.8389 4.10366 12.7139 4.22868L12.2426 4.70001C12.1811 4.76368 12.1075 4.81447 12.0262 4.84941C11.9449 4.88435 11.8574 4.90274 11.7689 4.90351C11.6803 4.90428 11.5925 4.88741 11.5106 4.85389C11.4287 4.82037 11.3542 4.77087 11.2917 4.70827C11.2291 4.64568 11.1796 4.57124 11.146 4.48931C11.1125 4.40738 11.0956 4.3196 11.0964 4.23108C11.0972 4.14256 11.1156 4.05508 11.1505 3.97374C11.1855 3.8924 11.2362 3.81884 11.2999 3.75734L11.7713 3.28601C11.8963 3.16103 12.0658 3.09082 12.2426 3.09082C12.4194 3.09082 12.5889 3.16103 12.7139 3.28601ZM3.28592 3.28601C3.41094 3.16103 3.58048 3.09082 3.75725 3.09082C3.93403 3.09082 4.10357 3.16103 4.22859 3.28601L4.69992 3.75734C4.82136 3.88308 4.88855 4.05148 4.88703 4.22628C4.88552 4.40108 4.8154 4.56828 4.6918 4.69189C4.56819 4.81549 4.40098 4.88561 4.22619 4.88713C4.05139 4.88864 3.88299 4.82145 3.75725 4.70001L3.28592 4.22868C3.16094 4.10366 3.09073 3.93412 3.09073 3.75734C3.09073 3.58057 3.16094 3.41103 3.28592 3.28601ZM7.99992 5.33334C7.29267 5.33334 6.6144 5.61429 6.1143 6.11439C5.6142 6.61449 5.33325 7.29277 5.33325 8.00001C5.33325 8.70725 5.6142 9.38553 6.1143 9.88563C6.6144 10.3857 7.29267 10.6667 7.99992 10.6667C8.70716 10.6667 9.38544 10.3857 9.88554 9.88563C10.3856 9.38553 10.6666 8.70725 10.6666 8.00001C10.6666 7.29277 10.3856 6.61449 9.88554 6.11439C9.38544 5.61429 8.70716 5.33334 7.99992 5.33334ZM3.99992 8.00001C3.99992 6.93914 4.42135 5.92173 5.17149 5.17158C5.92164 4.42144 6.93905 4.00001 7.99992 4.00001C9.06078 4.00001 10.0782 4.42144 10.8283 5.17158C11.5785 5.92173 11.9999 6.93914 11.9999 8.00001C11.9999 9.06088 11.5785 10.0783 10.8283 10.8284C10.0782 11.5786 9.06078 12 7.99992 12C6.93905 12 5.92164 11.5786 5.17149 10.8284C4.42135 10.0783 3.99992 9.06088 3.99992 8.00001ZM1.33325 8.00001C1.33325 7.8232 1.40349 7.65363 1.52851 7.52861C1.65354 7.40358 1.82311 7.33334 1.99992 7.33334H2.66659C2.8434 7.33334 3.01297 7.40358 3.13799 7.52861C3.26301 7.65363 3.33325 7.8232 3.33325 8.00001C3.33325 8.17682 3.26301 8.34639 3.13799 8.47141C3.01297 8.59644 2.8434 8.66668 2.66659 8.66668H1.99992C1.82311 8.66668 1.65354 8.59644 1.52851 8.47141C1.40349 8.34639 1.33325 8.17682 1.33325 8.00001ZM12.6666 8.00001C12.6666 7.8232 12.7368 7.65363 12.8618 7.52861C12.9869 7.40358 13.1564 7.33334 13.3333 7.33334H13.9999C14.1767 7.33334 14.3463 7.40358 14.4713 7.52861C14.5963 7.65363 14.6666 7.8232 14.6666 8.00001C14.6666 8.17682 14.5963 8.34639 14.4713 8.47141C14.3463 8.59644 14.1767 8.66668 13.9999 8.66668H13.3333C13.1564 8.66668 12.9869 8.59644 12.8618 8.47141C12.7368 8.34639 12.6666 8.17682 12.6666 8.00001ZM3.75725 11.3C3.88299 11.1786 4.05139 11.1114 4.22619 11.1129C4.40098 11.1144 4.56819 11.1845 4.6918 11.3081C4.8154 11.4317 4.88552 11.5989 4.88703 11.7737C4.88855 11.9485 4.82136 12.1169 4.69992 12.2427L4.22859 12.714C4.10285 12.8354 3.93445 12.9026 3.75965 12.9011C3.58485 12.8996 3.41764 12.8295 3.29404 12.7059C3.17043 12.5823 3.10032 12.4151 3.0988 12.2403C3.09728 12.0655 3.16448 11.8971 3.28592 11.7713L3.75725 11.3ZM11.2999 12.2427C11.1785 12.1169 11.1113 11.9485 11.1128 11.7737C11.1143 11.5989 11.1844 11.4317 11.308 11.3081C11.4316 11.1845 11.5989 11.1144 11.7737 11.1129C11.9484 11.1114 12.1168 11.1786 12.2426 11.3L12.7139 11.7713C12.8354 11.8971 12.9026 12.0655 12.901 12.2403C12.8995 12.4151 12.8294 12.5823 12.7058 12.7059C12.5822 12.8295 12.415 12.8996 12.2402 12.9011C12.0654 12.9026 11.897 12.8354 11.7713 12.714L11.2999 12.2427ZM7.99992 12.6667C8.17673 12.6667 8.3463 12.7369 8.47132 12.8619C8.59635 12.987 8.66658 13.1565 8.66658 13.3333V14C8.66658 14.1768 8.59635 14.3464 8.47132 14.4714C8.3463 14.5964 8.17673 14.6667 7.99992 14.6667C7.82311 14.6667 7.65354 14.5964 7.52851 14.4714C7.40349 14.3464 7.33325 14.1768 7.33325 14V13.3333C7.33325 13.1565 7.40349 12.987 7.52851 12.8619C7.65354 12.7369 7.82311 12.6667 7.99992 12.6667Z" fill="#2B3238"/>
</svg>
