<svg width="100" height="100" viewBox="0 0 100 100" fill="none" xmlns="http://www.w3.org/2000/svg">
<g clip-path="url(#clip0_40002493_10323)">
<circle cx="50" cy="50" r="50" fill="url(#paint0_linear_40002493_10323)"/>
<path d="M25 77.9062C25.0542 73.803 26.7217 69.8861 29.6417 67.0029C32.5618 64.1197 36.4995 62.5021 40.6031 62.5H59.3531C63.4567 62.5021 67.3945 64.1197 70.3145 67.0029C73.2345 69.8861 74.902 73.803 74.9562 77.9062C68.1026 84.0823 59.2039 87.5002 49.9781 87.5002C40.7523 87.5002 31.8536 84.0823 25 77.9062ZM64.0406 39.0625C64.0406 41.8438 63.2159 44.5626 61.6707 46.8752C60.1255 49.1878 57.9292 50.9902 55.3596 52.0546C52.79 53.1189 49.9625 53.3974 47.2347 52.8548C44.5068 52.3122 42.0011 50.9729 40.0344 49.0062C38.0678 47.0395 36.7284 44.5338 36.1858 41.806C35.6432 39.0781 35.9217 36.2506 36.9861 33.681C38.0504 31.1114 39.8529 28.9152 42.1654 27.37C44.478 25.8248 47.1968 25 49.9781 25C53.7077 25 57.2846 26.4816 59.9218 29.1188C62.559 31.756 64.0406 35.3329 64.0406 39.0625Z" fill="white"/>
</g>
<defs>
<linearGradient id="paint0_linear_40002493_10323" x1="55.9375" y1="128.125" x2="54.0865" y2="4.93243e-06" gradientUnits="userSpaceOnUse">
<stop stop-color="#003453"/>
<stop offset="1" stop-color="#2CC0E2"/>
</linearGradient>
<clipPath id="clip0_40002493_10323">
<rect width="100" height="100" fill="white"/>
</clipPath>
</defs>
</svg>
