<svg width="49" height="48" viewBox="0 0 49 48" fill="none" xmlns="http://www.w3.org/2000/svg">
<circle cx="24.5" cy="24" r="23.5" stroke="white"/>
<path d="M28.2665 15.2049C29.3706 15.2081 30.4286 15.6318 31.2093 16.3837C31.9901 17.1355 32.4302 18.1543 32.4335 19.2175V27.2419C32.4302 28.3052 31.9901 29.324 31.2093 30.0758C30.4286 30.8276 29.3706 31.2514 28.2665 31.2546H19.9335C18.8293 31.2514 17.7714 30.8276 16.9906 30.0758C16.2099 29.324 15.7698 28.3052 15.7665 27.2419V19.2175C15.7698 18.1543 16.2099 17.1355 16.9906 16.3837C17.7714 15.6318 18.8293 15.2081 19.9335 15.2049H28.2665ZM28.2665 13.6001H19.9335C16.725 13.6001 14.1 16.1279 14.1 19.2175V27.2419C14.1 30.3316 16.725 32.8594 19.9335 32.8594H28.2665C31.475 32.8594 34.1 30.3316 34.1 27.2419V19.2175C34.1 16.1279 31.475 13.6001 28.2665 13.6001Z" fill="white"/>
<path d="M29.5161 19.216C29.2689 19.216 29.0272 19.1454 28.8217 19.0131C28.6161 18.8809 28.4559 18.6929 28.3613 18.4729C28.2667 18.253 28.2419 18.011 28.2901 17.7775C28.3384 17.544 28.4574 17.3295 28.6322 17.1612C28.8071 16.9928 29.0298 16.8782 29.2723 16.8317C29.5147 16.7853 29.7661 16.8091 29.9945 16.9002C30.2229 16.9913 30.4181 17.1456 30.5555 17.3436C30.6928 17.5415 30.7661 17.7742 30.7661 18.0123C30.7665 18.1705 30.7344 18.3271 30.6717 18.4733C30.609 18.6195 30.5169 18.7524 30.4008 18.8642C30.2847 18.976 30.1467 19.0647 29.9949 19.1251C29.8431 19.1854 29.6804 19.2163 29.5161 19.216ZM24.0996 20.0182C24.7589 20.0182 25.4034 20.2064 25.9516 20.5592C26.4998 20.9119 26.927 21.4132 27.1793 21.9998C27.4316 22.5863 27.4977 23.2318 27.369 23.8544C27.2404 24.4771 26.9229 25.0491 26.4567 25.498C25.9905 25.947 25.3966 26.2527 24.7499 26.3765C24.1033 26.5004 23.4331 26.4368 22.8239 26.1939C22.2148 25.9509 21.6942 25.5395 21.3279 25.0116C20.9616 24.4837 20.7661 23.8631 20.7661 23.2282C20.7671 22.3771 21.1186 21.5612 21.7435 20.9594C22.3685 20.3576 23.2158 20.0191 24.0996 20.0182ZM24.0996 18.4134C23.1107 18.4134 22.144 18.6958 21.3218 19.2248C20.4995 19.7539 19.8587 20.5059 19.4802 21.3857C19.1018 22.2654 19.0028 23.2335 19.1957 24.1675C19.3886 25.1015 19.8648 25.9594 20.5641 26.6328C21.2633 27.3062 22.1543 27.7647 23.1242 27.9505C24.0941 28.1363 25.0994 28.0409 26.013 27.6765C26.9267 27.3121 27.7076 26.695 28.257 25.9032C28.8064 25.1114 29.0996 24.1805 29.0996 23.2282C29.0996 21.9512 28.5728 20.7266 27.6351 19.8236C26.6975 18.9207 25.4257 18.4134 24.0996 18.4134Z" fill="white"/>
</svg>
