<?xml version="1.0" encoding="utf-8"?>
<!-- Generator: Adobe Illustrator 16.0.0, SVG Export Plug-In . SVG Version: 6.00 Build 0)  -->
<!DOCTYPE svg PUBLIC "-//W3C//DTD SVG 1.1//EN" "http://www.w3.org/Graphics/SVG/1.1/DTD/svg11.dtd">
<svg version="1.1" id="圖層_1" xmlns="http://www.w3.org/2000/svg" xmlns:xlink="http://www.w3.org/1999/xlink" x="0px" y="0px"
	 width="40px" height="40px" viewBox="0 0 40 40" enable-background="new 0 0 40 40" xml:space="preserve">
<path fill="#FF6D6D" d="M20,40C8.972,40,0,31.028,0,20C0,8.972,8.972,0,20,0c11.028,0,20,8.972,20,20C40,31.028,31.028,40,20,40z"/>
<path fill="#FF6D6D" d="M20,1C9.523,1,1,9.523,1,20s8.523,19,19,19s19-8.523,19-19S30.477,1,20,1z"/>
<g>
	<path fill="#FFFFFF" d="M30,20.058c0-5.317-4.478-9.629-10-9.629s-10,4.312-10,9.629c0,4.807,3.656,8.79,8.438,9.513v-6.729h-2.54
		v-2.784h2.54v-2.121c0-2.413,1.493-3.747,3.777-3.747c1.094,0,2.238,0.188,2.238,0.188v2.37h-1.262
		c-1.241,0-1.629,0.742-1.629,1.505v1.805h2.773l-0.443,2.784h-2.33v6.73C26.344,28.85,30,24.865,30,20.058z"/>
</g>
</svg>
