<svg width="16" height="15" viewBox="0 0 16 15" fill="none" xmlns="http://www.w3.org/2000/svg">
<path fill-rule="evenodd" clip-rule="evenodd" d="M14.4476 9.979C14.0696 9.794 12.2316 8.892 11.8886 8.771C11.5456 8.65 11.2946 8.585 11.0456 8.957C10.7966 9.329 10.0726 10.165 9.8586 10.408C9.6446 10.651 9.4226 10.687 9.0436 10.501C7.93986 10.0672 6.92101 9.44271 6.0336 8.656C5.21629 7.90908 4.51522 7.04419 3.9536 6.09C3.7386 5.718 3.9326 5.517 4.1186 5.332C4.3046 5.147 4.4896 4.896 4.6826 4.682L4.8196 4.503C4.90678 4.35985 4.98526 4.21158 5.0546 4.059C5.10558 3.95717 5.12967 3.84399 5.12459 3.73023C5.11952 3.61647 5.08544 3.50589 5.0256 3.409C4.9326 3.223 4.1826 1.393 3.8676 0.65C3.5526 -0.093 3.2456 0.035 3.0246 0.035C2.8036 0.035 2.5596 0 2.3096 0C2.12002 0.00470401 1.93343 0.0483184 1.76141 0.128137C1.58939 0.207955 1.43561 0.322274 1.3096 0.464C0.88744 0.860976 0.552916 1.34181 0.327494 1.87566C0.102071 2.40951 -0.00927345 2.98459 0.000604129 3.564C0.00719972 3.99288 0.0724723 4.41883 0.194604 4.83C0.487977 5.75859 0.940363 6.62919 1.5316 7.403C1.7176 7.646 4.1196 11.521 7.9226 13.015C11.7256 14.509 11.7326 14.001 12.4226 13.937C12.9447 13.8394 13.4399 13.6314 13.8752 13.327C14.3104 13.0226 14.6757 12.6289 14.9466 12.172C15.1927 11.6183 15.2699 11.0044 15.1686 10.407C15.0706 10.258 14.8156 10.165 14.4476 9.979Z" fill="white"/>
</svg>
