<svg width="40" height="40" viewBox="0 0 40 40" fill="none" xmlns="http://www.w3.org/2000/svg">
<circle cx="20" cy="20" r="19.5" stroke="white"/>
<path d="M24.5835 15.417H21.8335C21.3293 15.417 20.9168 15.8295 20.9168 16.3337C20.9168 16.8378 21.3293 17.2503 21.8335 17.2503H24.5835C26.096 17.2503 27.3335 18.4878 27.3335 20.0003C27.3335 21.5128 26.096 22.7503 24.5835 22.7503H21.8335C21.3293 22.7503 20.9168 23.1628 20.9168 23.667C20.9168 24.1712 21.3293 24.5837 21.8335 24.5837H24.5835C27.1135 24.5837 29.1668 22.5303 29.1668 20.0003C29.1668 17.4703 27.1135 15.417 24.5835 15.417ZM16.3335 20.0003C16.3335 20.5045 16.746 20.917 17.2502 20.917H22.7502C23.2543 20.917 23.6668 20.5045 23.6668 20.0003C23.6668 19.4962 23.2543 19.0837 22.7502 19.0837H17.2502C16.746 19.0837 16.3335 19.4962 16.3335 20.0003ZM18.1668 22.7503H15.4168C13.9043 22.7503 12.6668 21.5128 12.6668 20.0003C12.6668 18.4878 13.9043 17.2503 15.4168 17.2503H18.1668C18.671 17.2503 19.0835 16.8378 19.0835 16.3337C19.0835 15.8295 18.671 15.417 18.1668 15.417H15.4168C12.8868 15.417 10.8335 17.4703 10.8335 20.0003C10.8335 22.5303 12.8868 24.5837 15.4168 24.5837H18.1668C18.671 24.5837 19.0835 24.1712 19.0835 23.667C19.0835 23.1628 18.671 22.7503 18.1668 22.7503Z" fill="white"/>
</svg>
