<svg width="20" height="14" viewBox="0 0 20 14" fill="none" xmlns="http://www.w3.org/2000/svg">
<path d="M10 0.333496C13.575 0.333496 16.5525 2.35766 18.8875 6.29516L19.0708 6.611L19.1083 6.69433L19.1333 6.7635L19.145 6.80933L19.1567 6.87766L19.1658 6.961V7.05266L19.1542 7.14516C19.1487 7.1761 19.1414 7.20671 19.1325 7.23683L19.1 7.32683L19.07 7.38933L19.0567 7.41433C16.7533 11.4443 13.8067 13.5643 10.2608 13.6635L10 13.6668C6.33667 13.6668 3.3025 11.5427 0.943334 7.4135C0.871425 7.28761 0.833603 7.14514 0.833603 7.00016C0.833603 6.85519 0.871425 6.71272 0.943334 6.58683C3.3025 2.45766 6.33667 0.333496 10 0.333496ZM10 4.50016C9.33696 4.50016 8.70107 4.76355 8.23223 5.2324C7.76339 5.70124 7.5 6.33712 7.5 7.00016C7.5 7.6632 7.76339 8.29909 8.23223 8.76793C8.70107 9.23677 9.33696 9.50016 10 9.50016C10.663 9.50016 11.2989 9.23677 11.7678 8.76793C12.2366 8.29909 12.5 7.6632 12.5 7.00016C12.5 6.33712 12.2366 5.70124 11.7678 5.2324C11.2989 4.76355 10.663 4.50016 10 4.50016Z" fill="white"/>
</svg>
