<?xml version="1.0" encoding="utf-8"?>
<!-- Generator: Adobe Illustrator 16.0.0, SVG Export Plug-In . SVG Version: 6.00 Build 0)  -->
<!DOCTYPE svg PUBLIC "-//W3C//DTD SVG 1.1//EN" "http://www.w3.org/Graphics/SVG/1.1/DTD/svg11.dtd">
<svg version="1.1" id="圖層_1" xmlns="http://www.w3.org/2000/svg" xmlns:xlink="http://www.w3.org/1999/xlink" x="0px" y="0px"
	 width="9px" height="6px" viewBox="0 0 9 6" enable-background="new 0 0 9 6" xml:space="preserve">
<path fill="#FFFFFF" d="M3.784,5.355L0.187,1.244C-0.237,0.76,0.107,0,0.752,0h7.193C8.09,0,8.23,0.042,8.353,0.119
	C8.474,0.197,8.57,0.309,8.629,0.44c0.061,0.131,0.08,0.277,0.06,0.419C8.668,1.002,8.605,1.136,8.511,1.244l-3.597,4.11
	C4.843,5.435,4.756,5.5,4.659,5.543c-0.097,0.045-0.203,0.068-0.31,0.068s-0.212-0.023-0.31-0.068
	C3.941,5.5,3.854,5.435,3.784,5.355L3.784,5.355z"/>
</svg>
