<svg width="14" height="9" viewBox="0 0 14 9" fill="none" xmlns="http://www.w3.org/2000/svg">
<path d="M0.700177 1.90735e-06H13.3005C13.4281 0.00034523 13.5532 0.0305567 13.6622 0.0873842C13.7713 0.144212 13.8602 0.225503 13.9195 0.322508C13.9787 0.419514 14.0061 0.52856 13.9985 0.637909C13.991 0.747257 13.9488 0.852768 13.8767 0.943084L7.57647 8.75702C7.31537 9.08099 6.68675 9.08099 6.42494 8.75702L0.124761 0.943084C0.0518363 0.852957 0.00907164 0.747393 0.00111315 0.637862C-0.00684535 0.528331 0.0203068 0.419022 0.0796195 0.321811C0.138932 0.2246 0.228137 0.143205 0.337542 0.0864697C0.446947 0.0297337 0.572368 -0.000171661 0.700177 1.90735e-06Z" fill="white"/>
</svg>
