<svg width="40" height="40" viewBox="0 0 40 40" fill="none" xmlns="http://www.w3.org/2000/svg">
<rect x="0.5" y="0.5" width="39" height="39" rx="19.5" stroke="#FF6D6D"/>
<path fill-rule="evenodd" clip-rule="evenodd" d="M30 20.0578C30 14.74 25.5223 10.4282 20 10.4282C14.4777 10.4282 10 14.74 10 20.0578C10 24.864 13.6562 28.8479 18.4375 29.5709V22.8422H15.8978V20.0578H18.4375V17.9363C18.4375 15.5233 19.9308 14.1893 22.2147 14.1893C23.3089 14.1893 24.4536 14.3776 24.4536 14.3776V16.7476H23.192C21.9504 16.7476 21.5621 17.4896 21.5621 18.2523V20.0578H24.3353L23.8924 22.8422H21.5625V29.5718C26.3438 28.8492 30 24.8653 30 20.0578Z" fill="#FF6D6D"/>
</svg>
