<svg width="146" height="117" viewBox="0 0 146 117" fill="none" xmlns="http://www.w3.org/2000/svg">
<g clip-path="url(#clip0_125_2661)">
<path d="M0 31.1398C1.17 29.3798 0.64 26.8698 2.31 25.3398C3.64 25.7598 3.83 26.8398 4.28 27.6898C10.45 39.3398 17.8 42.9898 30.93 40.5298C42.91 38.2798 54.32 34.0998 65.69 29.8398C67.18 29.2798 69.06 27.8398 70.28 29.3098C71.51 30.7998 69.62 32.3398 68.85 33.6998C66.97 37.0498 64.57 40.0398 61.93 42.8198C58.59 46.3198 55.55 50.0698 53.08 54.2298C51.61 56.6998 48.37 59.3098 50.15 62.0898C51.68 64.4898 55.09 62.2998 57.65 62.0598C65.52 61.3298 68.96 64.9498 67.62 72.6698C66.66 78.1798 64.72 83.3198 61 87.5398C50.67 99.2398 38.49 108.67 24.97 116.41C26.23 112 29.9 109.01 31.65 104.86C34.8 97.3699 32.25 93.2198 24.11 93.2798C19.43 93.3098 14.81 93.1798 10.42 91.3398C3.26 88.3398 1.27 80.6698 6.19 74.5998C7.32 73.1998 8.82 72.0798 10.24 70.9498C14.65 67.4598 15.06 64.8798 10.83 61.3398C5.84 57.1598 2.21 52.2198 0.03 46.1398V31.1398H0Z" fill="url(#paint0_linear_125_2661)"/>
<path d="M106.191 111.24C108.971 102.27 104.061 97.9596 97.3508 94.2496C92.4208 91.5296 87.8708 88.0796 83.3408 84.6996C79.0608 81.5096 76.2308 77.2496 75.4108 71.8596C74.5908 66.3996 77.7208 63.1196 83.1408 63.8796C86.9308 64.4096 90.6608 65.2596 94.5308 64.9896C101.851 64.4896 103.761 61.0596 99.9908 54.8596C95.0408 46.7396 89.3708 39.1496 83.0908 32.0096C82.2508 31.0496 80.9208 30.3596 81.0408 28.3496C84.5908 28.6396 87.8408 29.8996 90.8608 31.4396C103.751 38.0196 115.421 36.9696 126.131 26.7596C128.981 24.0396 132.511 21.9296 136.451 20.8496C137.531 20.5596 138.851 19.7596 139.701 20.8996C140.591 22.0696 139.411 23.0396 138.741 23.9396C134.541 29.5596 130.851 35.4696 128.121 41.9496C127.481 43.4796 126.501 45.2396 127.591 46.6896C128.901 48.4396 130.651 46.8796 132.161 46.5296C140.281 44.6296 146.501 50.9796 144.721 59.4396C143.241 66.4596 139.131 72.2196 135.371 78.0696C129.321 87.4696 121.811 95.7396 114.511 104.16C112.351 106.65 110.061 109.03 107.821 111.47C107.271 111.39 106.731 111.31 106.181 111.24H106.191Z" fill="url(#paint1_linear_125_2661)"/>
<path d="M108.649 0.000170635C115.019 -0.119829 120.119 4.86017 120.119 11.2102C120.119 17.6702 115.299 22.6402 108.879 22.7902C102.839 22.9402 97.3793 17.6302 97.2293 11.4602C97.0893 5.33017 102.279 0.120171 108.649 0.000170635Z" fill="url(#paint2_linear_125_2661)"/>
<path d="M47.1705 11.6198C47.0905 18.0498 42.1505 22.8498 35.6505 22.7998C29.4805 22.7598 24.4405 17.4798 24.5005 11.1298C24.5705 4.89982 29.8005 -0.110176 36.1305 -0.0001758C42.5205 0.109824 47.2505 5.07982 47.1705 11.6098V11.6198Z" fill="url(#paint3_linear_125_2661)"/>
</g>
<defs>
<linearGradient id="paint0_linear_125_2661" x1="0" y1="70.8749" x2="70.6853" y2="70.8749" gradientUnits="userSpaceOnUse">
<stop stop-color="#E65761"/>
<stop offset="1" stop-color="#F58255"/>
</linearGradient>
<linearGradient id="paint1_linear_125_2661" x1="75.2813" y1="65.8876" x2="145.027" y2="65.8876" gradientUnits="userSpaceOnUse">
<stop stop-color="#E65761"/>
<stop offset="1" stop-color="#F58255"/>
</linearGradient>
<linearGradient id="paint2_linear_125_2661" x1="97.2266" y1="11.3957" x2="120.119" y2="11.3957" gradientUnits="userSpaceOnUse">
<stop stop-color="#E65761"/>
<stop offset="1" stop-color="#F58255"/>
</linearGradient>
<linearGradient id="paint3_linear_125_2661" x1="24.5" y1="11.3991" x2="47.1715" y2="11.3991" gradientUnits="userSpaceOnUse">
<stop stop-color="#E65761"/>
<stop offset="1" stop-color="#F58255"/>
</linearGradient>
<clipPath id="clip0_125_2661">
<rect width="145.04" height="116.41" fill="white"/>
</clipPath>
</defs>
</svg>
