<svg width="11" height="20" viewBox="0 0 11 20" fill="none" xmlns="http://www.w3.org/2000/svg">
<path fill-rule="evenodd" clip-rule="evenodd" d="M0.219612 0.220341C0.149767 0.290009 0.0943527 0.372773 0.0565434 0.46389C0.018734 0.555008 -0.000728607 0.65269 -0.000728607 0.751341C-0.000728607 0.849992 0.018734 0.947674 0.0565434 1.03879C0.0943527 1.12991 0.149767 1.21267 0.219612 1.28234L8.69011 9.75134L0.219612 18.2203C0.0787821 18.3612 -0.00033474 18.5522 -0.00033474 18.7513C-0.00033474 18.9505 0.0787821 19.1415 0.219612 19.2823C0.360442 19.4232 0.551448 19.5023 0.750612 19.5023C0.949776 19.5023 1.14078 19.4232 1.28161 19.2823L10.2816 10.2823C10.3515 10.2127 10.4069 10.1299 10.4447 10.0388C10.4825 9.94767 10.502 9.84999 10.502 9.75134C10.502 9.65269 10.4825 9.55501 10.4447 9.46389C10.4069 9.37277 10.3515 9.29001 10.2816 9.22034L1.28161 0.220341C1.21194 0.150496 1.12918 0.0950816 1.03806 0.057272C0.946944 0.0194623 0.849263 0 0.750612 0C0.651961 0 0.55428 0.0194623 0.463162 0.057272C0.372045 0.0950816 0.28928 0.150496 0.219612 0.220341Z" fill="#FF6D6D"/>
</svg>
