<svg width="40" height="40" viewBox="0 0 40 40" fill="none" xmlns="http://www.w3.org/2000/svg">
<g clip-path="url(#clip0_40002493_11763)">
<circle cx="20" cy="20" r="19.5" stroke="white"/>
<path d="M20.0013 14.1591C20.9154 13.3849 22.1079 12.9713 23.334 13.0034C24.56 13.0356 25.7266 13.5109 26.5941 14.3317C27.4606 15.1521 27.9629 16.2551 27.998 17.4148C28.0331 18.5745 27.5984 19.703 26.7828 20.5689L19.9997 27L13.2182 20.5689C12.4017 19.7025 11.9665 18.5731 12.002 17.4125C12.0375 16.2518 12.5409 15.1481 13.4089 14.3278C14.2769 13.5076 15.4437 13.033 16.6697 13.0017C17.8956 12.9703 19.0878 13.3844 20.0013 14.1591Z" fill="white"/>
</g>
<defs>
<clipPath id="clip0_40002493_11763">
<rect width="40" height="40" fill="white"/>
</clipPath>
</defs>
</svg>
