<svg width="18" height="20" viewBox="0 0 18 20" fill="none" xmlns="http://www.w3.org/2000/svg">
<path fill-rule="evenodd" clip-rule="evenodd" d="M4.99976 2H12.9998V0H14.9998V2H15.9998C16.5302 2 17.0389 2.21071 17.414 2.58579C17.789 2.96086 17.9998 3.46957 17.9998 4V18C17.9998 18.5304 17.789 19.0391 17.414 19.4142C17.0389 19.7893 16.5302 20 15.9998 20H1.99976C1.46932 20 0.960615 19.7893 0.585542 19.4142C0.210469 19.0391 -0.000244141 18.5304 -0.000244141 18V4C-0.000244141 3.46957 0.210469 2.96086 0.585542 2.58579C0.960615 2.21071 1.46932 2 1.99976 2H2.99976V0H4.99976V2ZM1.99976 6V18H15.9998V6H1.99976ZM3.99976 9H5.99976V11H3.99976V9ZM7.99976 9H9.99976V11H7.99976V9ZM11.9998 9H13.9998V11H11.9998V9ZM11.9998 13H13.9998V15H11.9998V13ZM7.99976 13H9.99976V15H7.99976V13ZM3.99976 13H5.99976V15H3.99976V13Z" fill="white"/>
</svg>
