<svg width="25" height="26" viewBox="0 0 25 26" fill="none" xmlns="http://www.w3.org/2000/svg">
<path d="M4.6875 22.375C4.6875 22.375 3.125 22.375 3.125 20.8125C3.125 19.25 4.6875 14.5625 12.5 14.5625C20.3125 14.5625 21.875 19.25 21.875 20.8125C21.875 22.375 20.3125 22.375 20.3125 22.375H4.6875ZM12.5 13C13.7432 13 14.9355 12.5061 15.8146 11.6271C16.6936 10.748 17.1875 9.5557 17.1875 8.3125C17.1875 7.0693 16.6936 5.87701 15.8146 4.99794C14.9355 4.11886 13.7432 3.625 12.5 3.625C11.2568 3.625 10.0645 4.11886 9.18544 4.99794C8.30636 5.87701 7.8125 7.0693 7.8125 8.3125C7.8125 9.5557 8.30636 10.748 9.18544 11.6271C10.0645 12.5061 11.2568 13 12.5 13Z" fill="white"/>
</svg>
