<svg width="60" height="60" viewBox="0 0 60 60" fill="none" xmlns="http://www.w3.org/2000/svg">
<circle cx="30" cy="30" r="30" fill="#58A949"/>
<path d="M30 16C38.822 16 46 21.824 46 28.984C46 31.85 44.89 34.43 42.57 36.972C39.214 40.836 31.708 45.542 30 46.262C28.34 46.962 28.532 45.868 28.608 45.436L28.614 45.4L28.842 44.03C28.896 43.622 28.952 42.988 28.79 42.584C28.61 42.138 27.902 41.906 27.382 41.794C19.692 40.78 14 35.402 14 28.984C14 21.824 21.18 16 30 16ZM24.044 31.372H20.994V25.836C20.994 25.7536 20.9614 25.6745 20.9033 25.6161C20.8452 25.5576 20.7664 25.5245 20.684 25.524H19.56C19.519 25.524 19.4785 25.5321 19.4406 25.5477C19.4027 25.5634 19.3684 25.5864 19.3394 25.6154C19.3104 25.6444 19.2874 25.6787 19.2717 25.7166C19.2561 25.7545 19.248 25.795 19.248 25.836V32.808C19.248 32.89 19.282 32.968 19.336 33.022V33.024L19.34 33.028L19.344 33.032C19.3725 33.06 19.4062 33.082 19.4433 33.0968C19.4804 33.1115 19.5201 33.1188 19.56 33.118H24.044C24.216 33.118 24.354 32.978 24.354 32.806V31.686C24.3543 31.645 24.3465 31.6044 24.331 31.5664C24.3156 31.5285 24.2928 31.494 24.264 31.4648C24.2352 31.4356 24.201 31.4124 24.1632 31.3965C24.1255 31.3806 24.085 31.3723 24.044 31.372ZM25.626 25.524C25.5433 25.524 25.4639 25.5569 25.4054 25.6154C25.3469 25.6739 25.314 25.7533 25.314 25.836V32.808C25.314 32.98 25.454 33.118 25.626 33.118H26.75C26.922 33.118 27.06 32.978 27.06 32.808V25.836C27.06 25.7536 27.0274 25.6745 26.9693 25.6161C26.9112 25.5576 26.8324 25.5245 26.75 25.524H25.626ZM33.352 25.524C33.2693 25.524 33.1899 25.5569 33.1314 25.6154C33.0729 25.6739 33.04 25.7533 33.04 25.836V29.976L29.846 25.664L29.82 25.634L29.8 25.612L29.794 25.606L29.772 25.588L29.76 25.58L29.754 25.576L29.744 25.57L29.728 25.56H29.724L29.718 25.556L29.698 25.548L29.69 25.544L29.67 25.538H29.666L29.66 25.536L29.642 25.532H29.63L29.624 25.53H29.616L29.612 25.528H28.464C28.3816 25.528 28.3025 25.5606 28.2441 25.6187C28.1856 25.6768 28.1525 25.7556 28.152 25.838V32.81C28.152 32.982 28.292 33.12 28.464 33.12H29.584C29.758 33.12 29.898 32.98 29.898 32.81V28.67L33.098 32.99C33.1204 33.0188 33.1467 33.0443 33.176 33.066L33.178 33.068L33.198 33.08L33.206 33.084L33.222 33.092L33.236 33.098L33.246 33.102L33.266 33.108H33.272C33.2982 33.1147 33.325 33.1187 33.352 33.12H34.472C34.646 33.12 34.786 32.98 34.786 32.81V25.836C34.786 25.7533 34.7531 25.6739 34.6946 25.6154C34.6361 25.5569 34.5567 25.524 34.474 25.524H33.352ZM40.982 26.958V25.838C40.9823 25.797 40.9745 25.7564 40.959 25.7184C40.9436 25.6805 40.9208 25.646 40.892 25.6168C40.8632 25.5876 40.829 25.5644 40.7912 25.5485C40.7535 25.5326 40.713 25.5243 40.672 25.524H36.188C36.1075 25.5251 36.0304 25.5565 35.972 25.612H35.97L35.968 25.616L35.964 25.622C35.909 25.6799 35.8776 25.7562 35.876 25.836V32.808C35.876 32.89 35.91 32.968 35.964 33.022L35.968 33.028L35.972 33.032C36.0307 33.0867 36.1078 33.1174 36.188 33.118H40.672C40.844 33.118 40.982 32.978 40.982 32.806V31.686C40.9823 31.645 40.9745 31.6044 40.959 31.5664C40.9436 31.5285 40.9208 31.494 40.892 31.4648C40.8632 31.4356 40.829 31.4124 40.7912 31.3965C40.7535 31.3806 40.713 31.3723 40.672 31.372H37.62V30.194H40.67C40.842 30.194 40.98 30.054 40.98 29.882V28.762C40.9803 28.721 40.9725 28.6804 40.957 28.6424C40.9416 28.6045 40.9188 28.57 40.89 28.5408C40.8612 28.5116 40.827 28.4884 40.7892 28.4725C40.7515 28.4566 40.711 28.4483 40.67 28.448H37.62V27.27H40.67C40.842 27.27 40.98 27.13 40.98 26.958H40.982Z" fill="white"/>
</svg>
