<svg width="40" height="40" viewBox="0 0 40 40" fill="none" xmlns="http://www.w3.org/2000/svg">
<g clip-path="url(#clip0_40002493_12519)">
<circle cx="20" cy="20" r="19.5" stroke="white"/>
<path d="M14.8306 12.5904L27.1307 19.3796C27.2428 19.4415 27.336 19.5316 27.4009 19.6405C27.4658 19.7495 27.5 19.8734 27.5 19.9996C27.5 20.1257 27.4658 20.2496 27.4009 20.3586C27.336 20.4675 27.2428 20.5576 27.1307 20.6195L14.8306 27.4087C14.7202 27.4696 14.5955 27.5011 14.4688 27.5C14.3422 27.4989 14.2181 27.4653 14.1088 27.4025C13.9995 27.3397 13.9089 27.2499 13.8459 27.1421C13.783 27.0343 13.7499 26.9121 13.75 26.7879V13.2112C13.7501 13.087 13.7832 12.965 13.8463 12.8573C13.9093 12.7496 13.9999 12.66 14.1092 12.5973C14.2184 12.5346 14.3425 12.5011 14.4691 12.5C14.5956 12.499 14.7203 12.5295 14.8306 12.5904Z" fill="white"/>
</g>
<defs>
<clipPath id="clip0_40002493_12519">
<rect width="40" height="40" fill="white"/>
</clipPath>
</defs>
</svg>
