<svg width="21" height="20" viewBox="0 0 21 20" fill="none" xmlns="http://www.w3.org/2000/svg">
<path d="M18.2131 19.6966L13.9244 15.4079C13.2501 15.9923 12.4634 16.4474 11.5643 16.7734C10.6653 17.0993 9.71 17.2622 8.69855 17.2622C6.27104 17.2622 4.21441 16.4193 2.52865 14.7336C0.842882 13.0478 0 11.0137 0 8.63111C0 6.24857 0.842882 4.21441 2.52865 2.52865C4.21441 0.842882 6.25981 0 8.66483 0C11.0474 0 13.0759 0.842882 14.7504 2.52865C16.425 4.21441 17.2622 6.24857 17.2622 8.63111C17.2622 9.59762 17.1049 10.5304 16.7902 11.4295C16.4755 12.3286 16.0035 13.1714 15.3742 13.9581L19.7303 18.2468C19.9326 18.4266 20.0337 18.657 20.0337 18.938C20.0337 19.2189 19.9213 19.4718 19.6966 19.6966C19.4943 19.8989 19.247 20 18.9548 20C18.6626 20 18.4154 19.8989 18.2131 19.6966ZM8.66483 15.2393C10.4855 15.2393 12.0364 14.5931 13.3175 13.3007C14.5987 12.0083 15.2393 10.4517 15.2393 8.63111C15.2393 6.81049 14.5987 5.25397 13.3175 3.96155C12.0364 2.66913 10.4855 2.02292 8.66483 2.02292C6.82173 2.02292 5.25397 2.66913 3.96155 3.96155C2.66913 5.25397 2.02292 6.81049 2.02292 8.63111C2.02292 10.4517 2.66913 12.0083 3.96155 13.3007C5.25397 14.5931 6.82173 15.2393 8.66483 15.2393Z" fill="white"/>
</svg>
