<svg width="22" height="22" viewBox="0 0 22 22" fill="none" xmlns="http://www.w3.org/2000/svg">
<path fill-rule="evenodd" clip-rule="evenodd" d="M8.206 2.182C6.45485 2.73676 4.90852 3.80034 3.76409 5.2372C2.61966 6.67406 1.92896 8.41913 1.78 10.25H6.26C6.293 9.154 6.395 8.074 6.565 7.05C6.772 5.796 7.08 4.64 7.475 3.65C7.67496 3.1401 7.91958 2.64885 8.206 2.182ZM11 0.25C9.58829 0.25 8.1904 0.528057 6.88615 1.0683C5.5819 1.60853 4.39683 2.40037 3.3986 3.3986C2.40037 4.39683 1.60853 5.5819 1.06829 6.88615C0.528057 8.1904 0.25 9.58829 0.25 11C0.25 12.4117 0.528057 13.8096 1.06829 15.1138C1.60853 16.4181 2.40037 17.6032 3.3986 18.6014C4.39683 19.5996 5.5819 20.3915 6.88615 20.9317C8.1904 21.4719 9.58829 21.75 11 21.75C13.8511 21.75 16.5854 20.6174 18.6014 18.6014C20.6174 16.5854 21.75 13.8511 21.75 11C21.75 8.14892 20.6174 5.41462 18.6014 3.3986C16.5854 1.38259 13.8511 0.25 11 0.25ZM11 1.75C10.739 1.75 10.401 1.876 10.009 2.282C9.613 2.692 9.218 3.333 8.868 4.207C8.521 5.076 8.238 6.124 8.044 7.296C7.889 8.236 7.794 9.233 7.762 10.25H14.238C14.2091 9.2602 14.1149 8.27339 13.956 7.296C13.762 6.124 13.479 5.076 13.132 4.207C12.782 3.333 12.387 2.692 11.992 2.282C11.599 1.876 11.262 1.75 11 1.75ZM15.74 10.25C15.71 9.17772 15.6081 8.10865 15.435 7.05C15.228 5.796 14.92 4.64 14.525 3.65C14.3247 3.14006 14.0798 2.64882 13.793 2.182C15.207 2.62923 16.4925 3.41022 17.541 4.459C19.0922 6.01064 20.0414 8.06315 20.219 10.25H15.74ZM14.238 11.75H7.762C7.793 12.767 7.889 13.764 8.044 14.704C8.238 15.876 8.521 16.924 8.868 17.793C9.218 18.667 9.613 19.308 10.008 19.718C10.401 20.124 10.738 20.25 11 20.25C11.261 20.25 11.599 20.124 11.991 19.718C12.387 19.308 12.782 18.667 13.132 17.793C13.479 16.924 13.762 15.876 13.956 14.704C14.111 13.764 14.206 12.767 14.238 11.75ZM13.794 19.818C14.064 19.384 14.309 18.889 14.524 18.35C14.92 17.36 15.228 16.204 15.435 14.95C15.6077 13.8913 15.7093 12.8223 15.739 11.75H20.219C20.07 13.5809 19.3793 15.3259 18.2349 16.7628C17.0905 18.1997 15.5452 19.2632 13.794 19.818ZM8.205 19.818C7.91892 19.3511 7.67464 18.8599 7.475 18.35C7.079 17.36 6.771 16.204 6.564 14.95C6.39127 13.8913 6.28971 12.8223 6.26 11.75H1.78C1.92888 13.5808 2.61944 15.3257 3.76368 16.7626C4.90792 18.1994 6.45404 19.2631 8.205 19.818Z" fill="white"/>
</svg>
