<svg width="6" height="10" viewBox="0 0 6 10" fill="none" xmlns="http://www.w3.org/2000/svg">
<path fill-rule="evenodd" clip-rule="evenodd" d="M0.110783 0.11017C0.07586 0.145005 0.0481529 0.186386 0.0292482 0.231945C0.0103436 0.277504 0.000612259 0.326345 0.000612259 0.37567C0.000612259 0.424996 0.0103436 0.473837 0.0292482 0.519396C0.0481529 0.564955 0.07586 0.606336 0.110783 0.64117L4.34603 4.87567L0.110783 9.11017C0.0403676 9.18058 0.000809193 9.27609 0.000809193 9.37567C0.000809193 9.47525 0.0403676 9.57076 0.110783 9.64117C0.181198 9.71159 0.2767 9.75114 0.376283 9.75114C0.475864 9.75114 0.571368 9.71159 0.641783 9.64117L5.14178 5.14117C5.17671 5.10634 5.20441 5.06495 5.22332 5.01939C5.24222 4.97384 5.25195 4.925 5.25195 4.87567C5.25195 4.82634 5.24222 4.7775 5.22332 4.73195C5.20441 4.68639 5.17671 4.645 5.14178 4.61017L0.641783 0.11017C0.606948 0.075248 0.565567 0.0475408 0.520008 0.028636C0.474449 0.00973114 0.425608 0 0.376283 0C0.326957 0 0.278117 0.00973114 0.232558 0.028636C0.186999 0.0475408 0.145617 0.075248 0.110783 0.11017Z" fill="white"/>
</svg>
