<svg width="146" height="117" viewBox="0 0 146 117" fill="none" xmlns="http://www.w3.org/2000/svg">
<g clip-path="url(#clip0_125_2666)">
<path d="M2.43555 25.9238C3.13858 26.2496 3.31302 26.822 3.65723 27.5586L3.83789 27.9238C6.94853 33.7972 10.3934 37.7247 14.7764 39.8506C19.1599 41.9766 24.4019 42.2619 31.0225 41.0215C43.0508 38.7624 54.4987 34.5663 65.8652 30.3076H65.8662C66.263 30.1585 66.6853 29.9513 67.0771 29.7666C67.4818 29.5759 67.8655 29.4035 68.2314 29.292C68.5979 29.1804 68.9096 29.1417 69.1738 29.1865C69.4218 29.2286 69.6632 29.3489 69.8945 29.627V29.6279C70.127 29.9096 70.1951 30.1654 70.1846 30.4111C70.1731 30.6753 70.0684 30.9711 69.8789 31.3096C69.6897 31.6476 69.4391 31.9887 69.1699 32.3516C68.9096 32.7025 68.6259 33.0807 68.415 33.4531L68.4141 33.4551C66.5607 36.7576 64.1897 39.7141 61.5684 42.4746C58.2104 45.9935 55.1448 49.7735 52.6504 53.9746C52.3003 54.5628 51.841 55.1649 51.3535 55.8066C50.8739 56.4382 50.3688 57.1062 49.9658 57.79C49.5628 58.4739 49.2409 59.2073 49.1533 59.9795C49.0641 60.7665 49.221 61.5667 49.7285 62.3594V62.3584C50.1844 63.0735 50.7986 63.4628 51.498 63.6191C52.1746 63.7703 52.9061 63.6986 53.6133 63.5547C54.3202 63.4108 55.0632 63.1814 55.751 62.9844C56.367 62.8079 56.9438 62.6562 57.4727 62.584L57.6963 62.5576C61.5706 62.1983 64.2045 62.9261 65.7246 64.5391C67.2421 66.1493 67.7858 68.7879 67.127 72.584C66.2069 77.8646 64.384 82.7635 60.9609 86.8193L60.625 87.209C50.6336 98.5255 38.8998 107.713 25.8848 115.302C26.5389 113.708 27.5017 112.276 28.5332 110.827C29.8122 109.03 31.2087 107.192 32.1104 105.054H32.1113C33.7042 101.266 33.9333 98.1499 32.5342 95.9688C31.1303 93.7803 28.2286 92.7499 24.1064 92.7803H22.3594C18.2989 92.7501 14.364 92.4509 10.6133 90.8789C7.162 89.4328 4.99451 86.8809 4.25977 83.998C3.52535 81.1159 4.20703 77.8406 6.57812 74.915L6.5791 74.9141C7.6657 73.5678 9.11035 72.4879 10.5518 71.3408L10.5508 71.3398C12.7613 69.5902 14.1297 67.9565 14.2734 66.2041C14.4196 64.4207 13.288 62.745 11.1504 60.9561C6.24352 56.8455 2.68038 52.0017 0.530273 46.0498V31.2344C1.08915 30.2917 1.25754 29.1857 1.45605 28.2588C1.65359 27.3366 1.88341 26.5452 2.43555 25.9238Z" stroke="#FF6D6D"/>
<path d="M138.243 20.832C138.483 20.7926 138.677 20.7978 138.838 20.8477C138.989 20.8947 139.146 20.9915 139.3 21.1982L139.303 21.2021C139.469 21.421 139.518 21.5998 139.521 21.749C139.523 21.9065 139.473 22.0806 139.364 22.2852C139.254 22.4919 139.097 22.7039 138.91 22.9346C138.823 23.0424 138.724 23.1602 138.625 23.2803L138.34 23.6406C134.124 29.282 130.41 35.2279 127.66 41.7559L127.659 41.7568C127.357 42.4793 126.921 43.3695 126.72 44.2363C126.512 45.1318 126.526 46.1035 127.19 46.9883V46.9893C127.575 47.5034 128.023 47.8097 128.522 47.9365C129.01 48.0603 129.494 47.9992 129.933 47.8799C130.367 47.7616 130.803 47.5731 131.189 47.4092C131.593 47.2384 131.945 47.0927 132.273 47.0166H132.274C136.178 46.1032 139.58 47.1768 141.795 49.4482C144.012 51.7222 145.091 55.2492 144.231 59.3359C142.775 66.2442 138.732 71.9143 134.95 77.7988C129.678 85.9908 123.292 93.3213 116.88 100.676L114.133 103.832C112.036 106.25 109.823 108.555 107.631 110.938C107.365 110.899 107.1 110.862 106.833 110.825C108.047 106.502 107.488 103.193 105.75 100.501C103.96 97.7278 100.959 95.6727 97.5928 93.8115C93.9223 91.7864 90.4613 89.3529 87.0459 86.834L83.6396 84.2988C79.5834 81.2756 76.876 77.2878 75.9854 72.2725L75.9053 71.7842C75.5108 69.156 76.0786 67.1459 77.2959 65.8838C78.5109 64.6242 80.4693 64.0102 83.0713 64.375C86.805 64.8971 90.6262 65.7631 94.5654 65.4883L94.5645 65.4873C98.2482 65.2357 100.805 64.241 101.859 62.3008C102.919 60.3518 102.318 57.7237 100.418 54.5996L99.4785 53.0781C95.0544 46.0077 90.083 39.3422 84.6396 33.0273L83.4658 31.6797C82.6009 30.6916 81.6672 30.2247 81.5479 28.9023C84.7952 29.2632 87.8004 30.4399 90.6338 31.8848C97.1421 35.207 103.383 36.6239 109.374 35.8926C115.369 35.1608 121.059 32.2847 126.476 27.1211C129.271 24.4534 132.729 22.3883 136.583 21.332L136.582 21.3311C136.872 21.253 137.184 21.1399 137.455 21.0479C137.741 20.9509 138.001 20.8718 138.243 20.832Z" stroke="#FF6D6D"/>
<path d="M108.659 0.5C114.751 0.385468 119.619 5.14211 119.619 11.21C119.619 17.4015 115.013 22.1465 108.867 22.29C103.293 22.4285 98.2012 17.6644 97.7578 11.999L97.7295 11.4482C97.5965 5.61311 102.548 0.615123 108.659 0.5Z" stroke="#FF6D6D"/>
<path d="M36.1221 0.5C42.2272 0.605171 46.7476 5.33907 46.6709 11.6035V11.6133C46.5944 17.7636 41.8835 22.3477 35.6543 22.2998H35.6533C29.7746 22.2614 24.9441 17.2226 25.001 11.1357C25.0678 5.19014 30.0622 0.394695 36.1221 0.5Z" stroke="#FF6D6D"/>
</g>
<defs>
<clipPath id="clip0_125_2666">
<rect width="145.04" height="116.41" fill="white"/>
</clipPath>
</defs>
</svg>
