<svg width="17" height="14" viewBox="0 0 17 14" fill="none" xmlns="http://www.w3.org/2000/svg">
<path d="M4.03748 1.14337C4.15397 1.26111 4.21896 1.42028 4.21818 1.5859C4.2174 1.75153 4.1509 1.91007 4.03331 2.02671C3.37496 2.67699 2.85208 3.45136 2.49491 4.30502C2.13774 5.15867 1.95338 6.07468 1.95247 7.00004C1.95247 8.86421 2.69997 10.6525 4.03331 11.9725C4.09164 12.0303 4.13801 12.099 4.16979 12.1747C4.20157 12.2504 4.21812 12.3317 4.21851 12.4138C4.2189 12.4959 4.20311 12.5772 4.17205 12.6532C4.14098 12.7292 4.09526 12.7984 4.03748 12.8567C3.97969 12.915 3.91099 12.9614 3.83528 12.9932C3.75958 13.025 3.67836 13.0415 3.59625 13.0419C3.51415 13.0423 3.43278 13.0265 3.35678 12.9954C3.28078 12.9644 3.21164 12.9187 3.15331 12.8609C2.3779 12.0943 1.76214 11.1817 1.34161 10.1757C0.92108 9.16974 0.704133 8.09038 0.703308 7.00004C0.704133 5.9097 0.92108 4.83034 1.34161 3.82437C1.76214 2.81839 2.3779 1.90575 3.15331 1.13921C3.27105 1.02272 3.43021 0.957722 3.59584 0.958503C3.76146 0.959284 3.92001 1.02578 4.03664 1.14337M13.6133 1.14337C13.7299 1.02578 13.8885 0.959284 14.0541 0.958503C14.2197 0.957722 14.3789 1.02272 14.4966 1.13921C15.2726 1.90547 15.889 2.81799 16.3101 3.82398C16.7312 4.82997 16.9487 5.90947 16.95 7.00004C16.949 8.09044 16.732 9.16983 16.3113 10.1758C15.8906 11.1818 15.2747 12.0944 14.4991 12.8609C14.4408 12.9187 14.3717 12.9644 14.2957 12.9954C14.2197 13.0265 14.1383 13.0423 14.0562 13.0419C13.9741 13.0415 13.8929 13.025 13.8172 12.9932C13.7415 12.9614 13.6728 12.915 13.615 12.8567C13.5572 12.7984 13.5115 12.7292 13.4804 12.6532C13.4493 12.5772 13.4336 12.4959 13.4339 12.4138C13.4343 12.3317 13.4509 12.2504 13.4827 12.1747C13.5144 12.099 13.5608 12.0303 13.6191 11.9725C14.2774 11.3223 14.8002 10.5481 15.1574 9.69461C15.5145 8.84111 15.699 7.92526 15.7 7.00004C15.699 6.07482 15.5145 5.15897 15.1574 4.30547C14.8002 3.45196 14.2774 2.67773 13.6191 2.02754C13.5015 1.9109 13.4351 1.75236 13.4343 1.58673C13.4335 1.42111 13.4985 1.26195 13.615 1.14421M6.57081 3.47337C6.68719 3.59122 6.75203 3.75045 6.7511 3.91607C6.75016 4.0817 6.68352 4.24018 6.56581 4.35671C6.21539 4.70333 5.93675 5.11564 5.74581 5.57004C5.45901 6.25307 5.38385 7.00645 5.53004 7.73268C5.67624 8.4589 6.03706 9.12452 6.56581 9.64337C6.68042 9.76063 6.74436 9.91823 6.74385 10.0822C6.74334 10.2462 6.67842 10.4034 6.56308 10.5199C6.44775 10.6364 6.29123 10.703 6.12728 10.7052C5.96333 10.7074 5.80508 10.6451 5.68664 10.5317C5.21897 10.0692 4.84715 9.51898 4.59247 8.91254C4.2096 7.99971 4.1092 6.99305 4.30424 6.02258C4.49929 5.0521 4.98082 4.1624 5.68664 3.46837C5.80449 3.35199 5.96372 3.28715 6.12934 3.28809C6.29497 3.28902 6.45345 3.35567 6.56997 3.47337M11.255 3.47337C11.3715 3.35567 11.53 3.28902 11.6956 3.28809C11.8612 3.28715 12.0205 3.35199 12.1383 3.46837C12.606 3.93087 12.9778 4.4811 13.2325 5.08754C13.4862 5.69323 13.6169 6.34335 13.6169 7.00004C13.6169 7.65673 13.4862 8.30685 13.2325 8.91254C12.9778 9.51898 12.606 10.0692 12.1383 10.5317C12.0192 10.6415 11.8621 10.7008 11.7002 10.6971C11.5382 10.6933 11.3841 10.6269 11.2702 10.5117C11.1563 10.3965 11.0916 10.2416 11.0897 10.0796C11.0878 9.9176 11.1488 9.76121 11.26 9.64337C11.6108 9.29587 11.8891 8.88337 12.0791 8.43004C12.366 7.74709 12.4413 6.99375 12.2953 6.26753C12.1492 5.54131 11.7886 4.87565 11.26 4.35671C11.1423 4.24018 11.0756 4.0817 11.0747 3.91607C11.0737 3.75045 11.1386 3.59122 11.255 3.47337ZM7.12497 7.00004C7.12497 6.50276 7.32252 6.02585 7.67415 5.67421C8.02578 5.32258 8.50269 5.12504 8.99998 5.12504C9.49726 5.12504 9.97417 5.32258 10.3258 5.67421C10.6774 6.02585 10.875 6.50276 10.875 7.00004C10.875 7.49732 10.6774 7.97423 10.3258 8.32586C9.97417 8.6775 9.49726 8.87504 8.99998 8.87504C8.50269 8.87504 8.02578 8.6775 7.67415 8.32586C7.32252 7.97423 7.12497 7.49732 7.12497 7.00004Z" fill="white"/>
</svg>
