<svg width="11" height="10" viewBox="0 0 11 10" fill="none" xmlns="http://www.w3.org/2000/svg">
<path d="M5.75 10C8.5115 10 10.75 7.7615 10.75 5C10.75 4.7685 10.403 4.73 10.2835 4.9285C10.0286 5.35067 9.68102 5.7093 9.26701 5.97723C8.853 6.24516 8.38345 6.41537 7.89392 6.47495C7.40439 6.53453 6.90772 6.48194 6.44152 6.32114C5.97533 6.16034 5.55185 5.89556 5.20314 5.54686C4.85444 5.19815 4.58966 4.77467 4.42886 4.30848C4.26806 3.84228 4.21546 3.34561 4.27505 2.85608C4.33463 2.36655 4.50483 1.897 4.77277 1.48299C5.0407 1.06898 5.39933 0.721377 5.8215 0.4665C6.02 0.3465 5.9815 0 5.75 0C2.9885 0 0.75 2.2385 0.75 5C0.75 7.7615 2.9885 10 5.75 10Z" fill="#2B3238"/>
</svg>
