<svg width="20" height="20" viewBox="0 0 20 20" fill="none" xmlns="http://www.w3.org/2000/svg">
<path d="M10.0003 1.71244C14.6027 1.71244 18.3336 5.44338 18.3336 10.0458C18.3336 14.6481 14.6027 18.3791 10.0003 18.3791C5.39793 18.3791 1.66699 14.6481 1.66699 10.0458C1.66699 5.44338 5.39793 1.71244 10.0003 1.71244ZM10.0003 3.37904C6.3184 3.37904 3.33363 6.36381 3.33363 10.0457C3.33363 13.7276 6.3184 16.7124 10.0003 16.7124C13.6822 16.7124 16.667 13.7276 16.667 10.0457C16.667 6.36381 13.6822 3.37904 10.0003 3.37904ZM10.8336 4.16662V5.87904H12.5003V7.54572H10.0003C8.61961 7.54572 7.50031 8.66502 7.50031 10.0457C7.50031 11.3771 8.54109 12.4654 9.85344 12.5415L10.0003 12.5457H12.5003V14.2124H10.8336V15.8333H9.16684V14.129C7.26504 13.7429 5.83363 12.0615 5.83363 10.0457C5.83363 8.02998 7.26504 6.34854 9.16684 5.96244V4.16662H10.8336Z" fill="white"/>
</svg>
