<svg width="44" height="44" viewBox="0 0 44 44" fill="none" xmlns="http://www.w3.org/2000/svg">
<rect x="-0.5" y="0.5" width="43" height="43" rx="21.5" transform="matrix(-1 0 0 1 43 0)" fill="white"/>
<rect x="-0.5" y="0.5" width="43" height="43" rx="21.5" transform="matrix(-1 0 0 1 43 0)" stroke="#FF6D6D"/>
<path fill-rule="evenodd" clip-rule="evenodd" d="M16.7177 12.2203C16.6478 12.29 16.5924 12.3728 16.5546 12.4639C16.5168 12.555 16.4973 12.6527 16.4973 12.7513C16.4973 12.85 16.5168 12.9477 16.5546 13.0388C16.5924 13.1299 16.6478 13.2127 16.7177 13.2823L25.1882 21.7513L16.7177 30.2203C16.5768 30.3612 16.4977 30.5522 16.4977 30.7513C16.4977 30.9505 16.5768 31.1415 16.7177 31.2823C16.8585 31.4232 17.0495 31.5023 17.2487 31.5023C17.4478 31.5023 17.6388 31.4232 17.7797 31.2823L26.7797 22.2823C26.8495 22.2127 26.9049 22.1299 26.9427 22.0388C26.9805 21.9477 27 21.85 27 21.7513C27 21.6527 26.9805 21.555 26.9427 21.4639C26.9049 21.3728 26.8495 21.29 26.7797 21.2203L17.7797 12.2203C17.71 12.1505 17.6272 12.0951 17.5361 12.0573C17.445 12.0195 17.3473 12 17.2487 12C17.15 12 17.0523 12.0195 16.9612 12.0573C16.8701 12.0951 16.7873 12.1505 16.7177 12.2203Z" fill="#FF6D6D"/>
</svg>
