<svg width="60" height="60" viewBox="0 0 60 60" fill="none" xmlns="http://www.w3.org/2000/svg">
<circle cx="30" cy="30" r="30" fill="white"/>
<g clip-path="url(#clip0_40002493_10222)">
<path d="M25.1475 15.0527C21.9502 16.1619 19.1928 18.2672 17.2805 21.0592C15.3681 23.8513 14.4015 27.1831 14.5226 30.5652C14.6437 33.9472 15.8462 37.2013 17.9534 39.8494C20.0606 42.4975 22.9615 44.4001 26.23 45.2777C28.8798 45.9615 31.656 45.9915 34.32 45.3652C36.7333 44.8232 38.9644 43.6637 40.795 42.0002C42.7002 40.2161 44.0831 37.9464 44.795 35.4352C45.5688 32.7044 45.7065 29.8326 45.1975 27.0402H30.3175V33.2127H38.935C38.7628 34.1972 38.3937 35.1368 37.8499 35.9753C37.306 36.8138 36.5986 37.534 35.77 38.0927C34.7177 38.7888 33.5315 39.2572 32.2875 39.4677C31.0398 39.6997 29.7601 39.6997 28.5125 39.4677C27.248 39.2063 26.0517 38.6844 25 37.9352C23.3104 36.7392 22.0417 35.0401 21.375 33.0802C20.697 31.0837 20.697 28.9193 21.375 26.9227C21.8496 25.5233 22.6341 24.2491 23.67 23.1952C24.8555 21.9671 26.3563 21.0892 28.0079 20.6579C29.6594 20.2266 31.3979 20.2586 33.0325 20.7502C34.3094 21.1422 35.4771 21.8271 36.4425 22.7502C37.4142 21.7836 38.3842 20.8144 39.3525 19.8427C39.8525 19.3202 40.3975 18.8227 40.89 18.2877C39.4164 16.9164 37.6867 15.8494 35.8 15.1477C32.3642 13.9002 28.6049 13.8667 25.1475 15.0527Z" fill="white"/>
<path d="M25.1475 15.0525C28.6047 13.8656 32.364 13.8983 35.8 15.145C37.687 15.8514 39.416 16.9236 40.8875 18.3C40.3875 18.835 39.86 19.335 39.35 19.855C38.38 20.8233 37.4108 21.7883 36.4425 22.75C35.4771 21.8268 34.3094 21.142 33.0325 20.75C31.3984 20.2566 29.66 20.2228 28.0081 20.6523C26.3561 21.0819 24.8543 21.9581 23.6675 23.185C22.6316 24.2388 21.8471 25.513 21.3725 26.9125L16.19 22.9C18.045 19.2214 21.2569 16.4075 25.1475 15.0525Z" fill="#E33629"/>
<path d="M14.815 26.8749C15.0936 25.4944 15.556 24.1575 16.19 22.8999L21.3725 26.9224C20.6945 28.9189 20.6945 31.0834 21.3725 33.0799C19.6458 34.4132 17.9183 35.7532 16.19 37.0999C14.6029 33.9407 14.1188 30.3412 14.815 26.8749Z" fill="#F8BD00"/>
<path d="M30.3175 27.0376H45.1975C45.7065 29.8299 45.5688 32.7018 44.795 35.4326C44.0831 37.9438 42.7002 40.2135 40.795 41.9976C39.1225 40.6926 37.4425 39.3976 35.77 38.0926C36.5992 37.5333 37.3069 36.8123 37.8508 35.9729C38.3946 35.1335 38.7634 34.193 38.935 33.2076H30.3175C30.315 31.1526 30.3175 29.0951 30.3175 27.0376Z" fill="#587DBD"/>
<path d="M16.1875 37.1001C17.9158 35.7667 19.6433 34.4267 21.37 33.0801C22.038 35.0406 23.3085 36.7398 25 37.9351C26.055 38.6807 27.2538 39.1984 28.52 39.4551C29.7676 39.6871 31.0474 39.6871 32.295 39.4551C33.539 39.2445 34.7252 38.7762 35.7775 38.0801C37.45 39.3851 39.13 40.6801 40.8025 41.9851C38.9722 43.6494 36.741 44.8098 34.3275 45.3526C31.6635 45.9788 28.8873 45.9488 26.2375 45.2651C24.1418 44.7055 22.1842 43.7191 20.4875 42.3676C18.6917 40.9418 17.2249 39.145 16.1875 37.1001Z" fill="#319F43"/>
</g>
<defs>
<clipPath id="clip0_40002493_10222">
<rect width="32" height="32" fill="white" transform="translate(14 14)"/>
</clipPath>
</defs>
</svg>
