<svg width="9" height="6" viewBox="0 0 9 6" fill="none" xmlns="http://www.w3.org/2000/svg">
<path d="M3.78401 5.355L0.187013 1.2435C-0.237487 0.75975 0.107513 2.75779e-07 0.751763 2.75779e-07H7.94576C8.08995 -0.000123345 8.23111 0.0413159 8.35235 0.119356C8.47358 0.197396 8.56976 0.308728 8.62935 0.44002C8.68894 0.571312 8.70943 0.716999 8.68835 0.859633C8.66727 1.00227 8.60553 1.1358 8.51051 1.24425L4.91351 5.35425C4.84312 5.43481 4.7563 5.49937 4.65889 5.54361C4.56149 5.58785 4.45574 5.61073 4.34876 5.61073C4.24178 5.61073 4.13604 5.58785 4.03863 5.54361C3.94122 5.49937 3.85441 5.43481 3.78401 5.35425V5.355Z" fill="#FF6D6D"/>
</svg>
