<?xml version="1.0" encoding="utf-8"?>
<!-- Generator: Adobe Illustrator 16.0.0, SVG Export Plug-In . SVG Version: 6.00 Build 0)  -->
<!DOCTYPE svg PUBLIC "-//W3C//DTD SVG 1.1//EN" "http://www.w3.org/Graphics/SVG/1.1/DTD/svg11.dtd">
<svg version="1.1" id="圖層_1" xmlns="http://www.w3.org/2000/svg" xmlns:xlink="http://www.w3.org/1999/xlink" x="0px" y="0px"
	 width="44px" height="44px" viewBox="0 0 44 44" enable-background="new 0 0 44 44" xml:space="preserve">
<g>
	<path fill="#FF6D6D" d="M22,0.5L22,0.5C10.126,0.5,0.5,10.126,0.5,22l0,0c0,11.874,9.626,21.5,21.5,21.5l0,0
		c11.874,0,21.5-9.626,21.5-21.5l0,0C43.5,10.126,33.874,0.5,22,0.5z"/>
</g>
<g>
	<path fill="#FF6D6D" d="M22,44C9.869,44,0,34.131,0,22S9.869,0,22,0s22,9.869,22,22S34.131,44,22,44z M22,1C10.42,1,1,10.42,1,22
		c0,11.579,9.42,21,21,21c11.579,0,21-9.421,21-21C43,10.42,33.579,1,22,1z"/>
</g>
<g>
	<path fill="#FFFFFF" d="M16.718,12.22c-0.07,0.07-0.125,0.153-0.163,0.244c-0.038,0.091-0.058,0.189-0.058,0.288
		s0.02,0.196,0.058,0.288c0.038,0.091,0.093,0.174,0.163,0.243l8.47,8.469l-8.47,8.469c-0.141,0.141-0.22,0.332-0.22,0.531
		s0.079,0.39,0.22,0.53c0.141,0.142,0.332,0.22,0.531,0.22s0.39-0.078,0.531-0.22l9-9c0.07-0.069,0.125-0.152,0.164-0.243
		C26.98,21.948,27,21.85,27,21.751s-0.02-0.196-0.057-0.288c-0.039-0.091-0.094-0.174-0.164-0.244l-9-9
		c-0.07-0.07-0.153-0.125-0.244-0.163C17.445,12.02,17.347,12,17.249,12s-0.196,0.02-0.287,0.057
		C16.87,12.095,16.787,12.15,16.718,12.22z"/>
</g>
</svg>
