<svg width="32" height="32" viewBox="0 0 32 32" fill="none" xmlns="http://www.w3.org/2000/svg">
<g clip-path="url(#clip0_40002493_10512)">
<circle cx="16" cy="16" r="15.5" stroke="#2CC0E2"/>
<path d="M16.0013 10.1591C16.9154 9.38485 18.1079 8.97134 19.334 9.00345C20.56 9.03556 21.7266 9.51086 22.5941 10.3317C23.4606 11.1521 23.9629 12.2551 23.998 13.4148C24.0331 14.5745 23.5984 15.703 22.7828 16.5689L15.9997 23L9.21822 16.5689C8.40173 15.7025 7.96655 14.5731 8.00201 13.4125C8.03747 12.2518 8.54089 11.1481 9.40891 10.3278C10.2769 9.50757 11.4437 9.03304 12.6697 9.00166C13.8956 8.97028 15.0878 9.38443 16.0013 10.1591Z" fill="#2CC0E2"/>
</g>
<defs>
<clipPath id="clip0_40002493_10512">
<rect width="32" height="32" fill="white"/>
</clipPath>
</defs>
</svg>
