<svg width="164" height="60" viewBox="0 0 164 60" fill="none" xmlns="http://www.w3.org/2000/svg">
<g clip-path="url(#clip0_40002493_9291)">
<path d="M149.259 0H14.3284C13.7774 0 13.2329 0 12.6833 0.003C12.2232 0.006 11.7668 0.014715 11.3023 0.02205C10.2932 0.0339027 9.28653 0.122514 8.29094 0.287115C7.29674 0.455299 6.33369 0.772374 5.43435 1.22761C4.53611 1.68671 3.71537 2.28325 3.00189 2.9956C2.28467 3.70596 1.6868 4.52702 1.2313 5.42724C0.774528 6.32566 0.457805 7.28841 0.292063 8.28222C0.124746 9.27478 0.0347116 10.2788 0.022767 11.2852C0.00882126 11.7451 0.00734855 12.2065 0 12.6665V47.3379C0.00734855 47.8036 0.00882126 48.2548 0.022767 48.7207C0.0347152 49.7271 0.12475 50.7311 0.292063 51.7236C0.457347 52.718 0.774089 53.6813 1.2313 54.58C1.6866 55.4774 2.28454 56.2951 3.00189 57.0015C3.71266 57.717 4.53394 58.314 5.43435 58.7695C6.33368 59.226 7.29663 59.545 8.29094 59.7158C9.2867 59.879 10.2933 59.9677 11.3023 59.981C11.7668 59.9912 12.2232 59.997 12.6833 59.997C13.2329 60 13.7774 60 14.3284 60H149.259C149.799 60 150.348 60 150.888 59.997C151.345 59.997 151.815 59.9912 152.273 59.981C153.28 59.9684 154.285 59.8797 155.279 59.7158C156.276 59.5438 157.242 59.2249 158.146 58.7695C159.046 58.3137 159.866 57.7168 160.576 57.0015C161.292 56.2923 161.891 55.4752 162.352 54.58C162.806 53.6806 163.12 52.7174 163.282 51.7236C163.45 50.731 163.543 49.7272 163.561 48.7207C163.567 48.2548 163.567 47.8036 163.567 47.3379C163.579 46.7929 163.579 46.251 163.579 45.6972V14.3042C163.579 13.7549 163.579 13.21 163.567 12.6665C163.567 12.2065 163.567 11.7451 163.561 11.2852C163.543 10.2786 163.45 9.27485 163.282 8.28216C163.119 7.28892 162.805 6.32625 162.352 5.42718C161.424 3.62279 159.954 2.15404 158.146 1.22748C157.242 0.773351 156.276 0.456361 155.279 0.28698C154.285 0.121654 153.28 0.0330116 152.273 0.02184C151.815 0.01452 151.345 0.00573 150.888 0.002805C150.348 0 149.799 0 149.259 0Z" fill="white" fill-opacity="0.2"/>
<path d="M12.6907 58.6875C12.2328 58.6875 11.786 58.6816 11.3317 58.6714C10.3907 58.6592 9.45179 58.5774 8.52283 58.4268C7.65662 58.2779 6.81749 58.0009 6.03313 57.605C5.25596 57.2123 4.54712 56.6974 3.93376 56.08C3.31152 55.47 2.79348 54.7624 2.40017 53.9853C2.00252 53.2032 1.72732 52.3648 1.58416 51.4995C1.42956 50.5697 1.34592 49.6295 1.33395 48.687C1.32442 48.3707 1.31195 47.3174 1.31195 47.3174V12.6665C1.31195 12.6665 1.32524 11.6294 1.33403 11.3247C1.34549 10.3837 1.42864 9.44498 1.58278 8.5166C1.7262 7.64888 2.00161 6.80812 2.39948 6.02344C2.79135 5.24692 3.30651 4.53879 3.925 3.92652C4.54279 3.30843 5.2539 2.79091 6.03239 2.39281C6.81495 1.99814 7.65249 1.7231 8.51695 1.57691C9.44897 1.42475 10.3911 1.34249 11.3354 1.33082L12.6914 1.3125H150.88L152.252 1.33155C153.188 1.34265 154.122 1.42417 155.045 1.57543C155.918 1.72346 156.765 2.00042 157.556 2.39721C159.116 3.19948 160.385 4.46874 161.185 6.02711C161.577 6.80636 161.848 7.64026 161.99 8.5005C162.146 9.4365 162.233 10.3826 162.251 11.3313C162.255 11.7561 162.255 12.2124 162.255 12.6665C162.267 13.229 162.267 13.7644 162.267 14.3042V45.6972C162.267 46.2421 162.267 46.7739 162.255 47.31C162.255 47.7978 162.255 48.2446 162.249 48.7045C162.232 49.6363 162.146 50.5655 161.993 51.4848C161.852 52.3564 161.579 53.2013 161.181 53.9898C160.785 54.7584 160.27 55.4599 159.655 56.0683C159.041 56.689 158.331 57.2069 157.552 57.6021C156.763 58.0011 155.918 58.2791 155.045 58.4268C154.116 58.5782 153.177 58.66 152.236 58.6714C151.796 58.6816 151.335 58.6875 150.888 58.6875L149.259 58.6905L12.6907 58.6875Z" fill="#1A1A1A"/>
<path d="M61.8652 24.8312H55.7766L54.3145 29.1407H51.7356L57.5026 13.1968H60.1821L65.9491 29.1406H63.3261L61.8652 24.8312ZM56.4072 22.8426H61.2334L58.8543 15.8486H58.7877L56.4072 22.8426Z" fill="white"/>
<path d="M78.4039 23.33C78.4039 26.9423 76.4669 29.2632 73.5438 29.2632C72.8033 29.3019 72.0669 29.1316 71.4189 28.7719C70.7709 28.4123 70.2374 27.8777 69.8796 27.2295H69.8243V32.9871H67.4338V17.5172H69.7477V19.4507H69.7917C70.1659 18.8056 70.7084 18.2738 71.3614 17.9119C72.0143 17.5501 72.7534 17.3717 73.4998 17.3957C76.4556 17.3956 78.4039 19.7277 78.4039 23.33ZM75.9468 23.33C75.9468 20.9765 74.7283 19.4293 72.8692 19.4293C71.0428 19.4293 69.8143 21.0092 69.8143 23.33C69.8143 25.6722 71.0428 27.2408 72.8692 27.2408C74.7284 27.2408 75.9468 25.7048 75.9468 23.33H75.9468Z" fill="white"/>
<path d="M91.2222 23.33C91.2222 26.9423 89.2846 29.2632 86.3615 29.2632C85.6211 29.3019 84.8847 29.1316 84.2366 28.7719C83.5886 28.4123 83.0551 27.8777 82.6973 27.2295H82.642V32.9871H80.2516V17.5172H82.5654V19.4507H82.6094C82.9837 18.8056 83.5261 18.2738 84.1791 17.9119C84.8321 17.5501 85.5711 17.3717 86.3176 17.3957C89.2733 17.3956 91.2222 19.7277 91.2222 23.33ZM88.7646 23.33C88.7646 20.9765 87.5461 19.4293 85.687 19.4293C83.8605 19.4293 82.632 21.0092 82.632 23.33C82.632 25.6722 83.8605 27.2408 85.687 27.2408C87.5461 27.2408 88.7646 25.7048 88.7646 23.33H88.7646Z" fill="white"/>
<path d="M99.6925 24.6989C99.8696 26.28 101.408 27.3182 103.511 27.3182C105.526 27.3182 106.976 26.28 106.976 24.8544C106.976 23.6169 106.101 22.8759 104.031 22.368L101.961 21.8703C99.028 21.1631 97.6663 19.7939 97.6663 17.5721C97.6663 14.8211 100.068 12.9316 103.477 12.9316C106.854 12.9316 109.168 14.8212 109.246 17.5721H106.832C106.688 15.981 105.37 15.0206 103.445 15.0206C101.519 15.0206 100.201 15.9923 100.201 17.4067C100.201 18.5339 101.043 19.1972 103.102 19.705L104.862 20.1363C108.139 20.9099 109.499 22.2239 109.499 24.5561C109.499 27.5389 107.12 29.4072 103.334 29.4072C99.7917 29.4072 97.4 27.5828 97.2455 24.699L99.6925 24.6989Z" fill="white"/>
<path d="M114.661 14.7657V17.5167H116.875V19.4063H114.661V25.8146C114.661 26.8102 115.104 27.2741 116.078 27.2741C116.341 27.2696 116.603 27.2511 116.864 27.219V29.0972C116.426 29.1788 115.982 29.2158 115.536 29.2076C113.179 29.2076 112.259 28.3236 112.259 26.0692V19.4062H110.566V17.5166H112.259V14.7656L114.661 14.7657Z" fill="white"/>
<path d="M118.157 23.3302C118.157 19.6728 120.315 17.3745 123.68 17.3745C127.057 17.3745 129.205 19.6728 129.205 23.3302C129.205 26.9977 127.068 29.286 123.68 29.286C120.293 29.286 118.157 26.9977 118.157 23.3302ZM126.769 23.3302C126.769 20.8213 125.617 19.3405 123.68 19.3405C121.743 19.3405 120.591 20.8326 120.591 23.3302C120.591 25.8492 121.743 27.3187 123.68 27.3187C125.617 27.3187 126.769 25.8492 126.769 23.3302Z" fill="white"/>
<path d="M131.176 17.5173H133.455V19.4958H133.511C133.665 18.8778 134.028 18.3317 134.538 17.9493C135.048 17.5668 135.674 17.3713 136.312 17.3956C136.587 17.3946 136.862 17.4245 137.131 17.4846V19.7164C136.783 19.6104 136.42 19.5617 136.057 19.5722C135.71 19.5582 135.363 19.6193 135.042 19.7514C134.721 19.8835 134.432 20.0835 134.195 20.3375C133.958 20.5916 133.78 20.8938 133.671 21.2234C133.562 21.5529 133.527 21.902 133.566 22.2467V29.1416H131.176V17.5173Z" fill="white"/>
<path d="M148.152 25.7276C147.89 26.8261 147.237 27.7922 146.315 28.4466C145.392 29.101 144.264 29.3992 143.138 29.286C139.75 29.286 137.647 27.0203 137.647 23.3854C137.647 19.7392 139.761 17.3745 143.037 17.3745C146.259 17.3745 148.286 19.5838 148.286 23.1083V23.9258H140.06V24.07C140.022 24.4978 140.076 24.9288 140.218 25.3343C140.359 25.7398 140.586 26.1106 140.882 26.422C141.179 26.7334 141.538 26.9784 141.936 27.1405C142.335 27.3027 142.763 27.3784 143.193 27.3626C143.758 27.4154 144.325 27.2849 144.81 26.9903C145.294 26.6957 145.67 26.2528 145.883 25.7276L148.152 25.7276ZM140.072 22.2582H145.894C145.915 21.8736 145.857 21.4886 145.722 21.1276C145.588 20.7665 145.38 20.4371 145.111 20.1601C144.843 19.8831 144.521 19.6644 144.164 19.5177C143.807 19.3711 143.423 19.2996 143.037 19.3079C142.648 19.3056 142.262 19.3803 141.902 19.5276C141.542 19.6749 141.214 19.892 140.939 20.1663C140.663 20.4406 140.444 20.7666 140.296 21.1257C140.147 21.4847 140.071 21.8696 140.072 22.2582V22.2582Z" fill="white"/>
<path d="M51.7385 36.0601H62.9513V37.2305H57.6212V38.8857C58.3851 39.2387 59.1538 39.6279 59.9275 40.0532C60.7009 40.478 61.4833 40.9341 62.2748 41.4214L61.5843 42.4966C60.7698 41.978 60.038 41.521 59.3888 41.1255C58.7395 40.73 58.1502 40.4014 57.6212 40.1397V47.0523H56.4332V37.2305H51.7385L51.7385 36.0601Z" fill="white"/>
<path d="M66.0559 36.4116H68.4032V35.4668H69.5634V36.4116H71.7383V37.4868H69.5633V38.4023H72.3047C72.2864 37.9526 72.268 37.4829 72.2497 36.9932C72.2307 36.5039 72.2214 35.9907 72.2218 35.4536H73.3746C73.3746 36 73.3827 36.5156 73.3988 37.0005C73.4149 37.4853 73.4323 37.9526 73.4509 38.4023H76.5027V39.4922H73.5059C73.5426 39.9976 73.5898 40.459 73.6475 40.8765C73.7048 41.2954 73.7569 41.6689 73.8031 42C73.8385 42.1097 73.8662 42.2218 73.886 42.3354C73.9044 42.4423 73.9227 42.5522 73.9411 42.6621C74.1358 42.2425 74.3063 41.8121 74.4518 41.373C74.6037 40.9189 74.7418 40.4321 74.8663 39.9126L75.923 40.3945C75.6059 41.7488 75.0967 43.0511 74.4107 44.2617C74.4474 44.3525 74.4877 44.4462 74.5318 44.54C74.575 44.6338 74.6198 44.7246 74.666 44.8125C74.9559 45.3867 75.1861 45.6738 75.3565 45.6738C75.4717 45.6738 75.6053 45.0698 75.7572 43.8618L76.772 44.3994C76.4821 46.0767 76.0541 46.915 75.4879 46.9145C75.0593 46.9145 74.5736 46.5376 74.0306 45.7837C73.9196 45.6138 73.825 45.4338 73.7481 45.2461C73.1614 45.9707 72.4476 46.5827 71.6414 47.0522L70.9862 46.1089C71.8942 45.6027 72.6626 44.8801 73.2227 44.0054C73.1398 43.7344 73.0559 43.4555 72.971 43.1689C72.8859 42.8818 72.8132 42.582 72.7531 42.2695C72.5533 41.3547 72.4219 40.4264 72.3598 39.4922H65.3999V38.4023H68.4032V37.4868H66.0559L66.0559 36.4116ZM71.7382 44.3438V45.378C71.4345 45.4146 71.1273 45.4488 70.8166 45.4805C70.5062 45.5128 70.1915 45.5479 69.8744 45.5846V47.0113H68.7142V45.7296C68.2769 45.7662 67.8325 45.8004 67.381 45.8321C66.9304 45.8643 66.4718 45.9068 66.0074 45.9566L65.8555 44.8404C66.3662 44.8214 66.8563 44.795 67.326 44.7613C67.7956 44.7261 68.2583 44.6949 68.7143 44.6676V43.7373H66.4081L66.166 42.7925C66.4886 42.3782 66.7686 41.9326 67.0017 41.4624H65.7866V40.4077H67.464C67.5235 40.2777 67.5721 40.1429 67.6093 40.0049C67.646 39.8701 67.692 39.7266 67.7473 39.5742L68.8795 39.7749C68.834 39.9024 68.7973 40.0166 68.7694 40.1162C68.7407 40.2173 68.7013 40.315 68.652 40.4077H71.7933V41.4624H68.2308C68.1068 41.7114 67.9813 41.9414 67.8544 42.1524C67.7274 42.3634 67.6088 42.568 67.4985 42.7662H68.7144V41.9312H69.8745V42.7661H71.6693V43.7373H69.8745V44.543C70.1915 44.5166 70.5062 44.4844 70.8167 44.4507C71.127 44.4155 71.4342 44.3799 71.7382 44.3438ZM73.7613 36.1553L74.6381 35.5635C75.167 36.1502 75.6583 36.7696 76.1093 37.418L75.2185 38.0508C75.0388 37.7666 74.8282 37.4648 74.5868 37.1455C74.3446 36.8262 74.0694 36.4961 73.7613 36.1553L73.7613 36.1553Z" fill="white"/>
<path d="M37.222 30.452C37.2381 29.2 37.5713 27.9724 38.1905 26.8835C38.8096 25.7945 39.6947 24.8796 40.7633 24.2239C40.0845 23.2561 39.1889 22.4597 38.1477 21.8979C37.1066 21.3361 35.9485 21.0243 34.7655 20.9873C32.242 20.723 29.7956 22.4946 28.5096 22.4946C27.1988 22.4946 25.2189 21.0136 23.0869 21.0574C21.7078 21.1019 20.3638 21.5021 19.1859 22.2192C18.0079 22.9363 17.0361 23.9457 16.3651 25.1492C13.4588 30.1718 15.6266 37.5534 18.4107 41.6133C19.8036 43.6013 21.4315 45.822 23.5616 45.7433C25.6461 45.657 26.4246 44.4165 28.9406 44.4165C31.4334 44.4165 32.1638 45.7433 34.3371 45.6932C36.5738 45.6569 37.983 43.6963 39.3271 41.6895C40.3279 40.2729 41.098 38.7073 41.6089 37.0507C40.3094 36.5021 39.2005 35.5839 38.4204 34.4104C37.6403 33.237 37.2235 31.8603 37.222 30.452V30.452Z" fill="white"/>
<path d="M33.117 18.317C34.3365 16.8557 34.9374 14.9774 34.7919 13.0811C32.9287 13.2764 31.2076 14.1652 29.9716 15.5705C29.3673 16.257 28.9044 17.0556 28.6095 17.9208C28.3146 18.7859 28.1934 19.7006 28.2529 20.6126C29.1848 20.6221 30.1068 20.4205 30.9493 20.0229C31.7918 19.6253 32.533 19.042 33.117 18.317Z" fill="white"/>
</g>
<defs>
<clipPath id="clip0_40002493_9291">
<rect width="163.579" height="60" fill="white"/>
</clipPath>
</defs>
</svg>
