<?xml version="1.0" encoding="utf-8"?>
<!-- Generator: Adobe Illustrator 16.0.0, SVG Export Plug-In . SVG Version: 6.00 Build 0)  -->
<!DOCTYPE svg PUBLIC "-//W3C//DTD SVG 1.1//EN" "http://www.w3.org/Graphics/SVG/1.1/DTD/svg11.dtd">
<svg version="1.1" id="圖層_1" xmlns="http://www.w3.org/2000/svg" xmlns:xlink="http://www.w3.org/1999/xlink" x="0px" y="0px"
	 width="40px" height="40px" viewBox="0 0 40 40" enable-background="new 0 0 40 40" xml:space="preserve">
<path fill="#FF6D6D" d="M20,40C8.972,40,0,31.028,0,20C0,8.972,8.972,0,20,0c11.028,0,20,8.972,20,20C40,31.028,31.028,40,20,40z"/>
<path fill="#FF6D6D" d="M20,1C9.523,1,1,9.523,1,20s8.523,19,19,19s19-8.523,19-19S30.477,1,20,1z"/>
<g>
	<path fill="#FFFFFF" d="M16.048,18.969l-1.715,1.714c-0.704,0.704-1.099,1.658-1.099,2.652s0.395,1.949,1.099,2.652
		c0.703,0.703,1.657,1.098,2.652,1.098s1.948-0.395,2.652-1.098l2.285-2.287c0.424-0.424,0.74-0.943,0.922-1.516
		c0.182-0.571,0.224-1.178,0.122-1.769s-0.343-1.149-0.705-1.628s-0.833-0.863-1.374-1.122l-0.732,0.733
		c-0.075,0.074-0.139,0.158-0.193,0.249c0.418,0.12,0.798,0.348,1.101,0.659c0.304,0.312,0.521,0.698,0.629,1.119
		c0.109,0.422,0.105,0.863-0.009,1.283s-0.337,0.803-0.646,1.11l-2.283,2.284c-0.469,0.47-1.105,0.733-1.769,0.733
		s-1.3-0.264-1.769-0.733c-0.469-0.469-0.733-1.104-0.733-1.768c0-0.664,0.264-1.301,0.733-1.77l0.991-0.99
		c-0.14-0.523-0.194-1.067-0.16-1.608V18.969z"/>
</g>
<g>
	<path fill="#FFFFFF" d="M18.499,16.883c-0.424,0.424-0.74,0.944-0.922,1.516s-0.224,1.179-0.122,1.77
		c0.101,0.591,0.343,1.149,0.705,1.628s0.833,0.863,1.375,1.121l0.968-0.97c-0.423-0.113-0.81-0.337-1.12-0.647
		s-0.533-0.696-0.647-1.12c-0.113-0.424-0.113-0.87,0-1.294c0.113-0.424,0.336-0.811,0.647-1.121l2.284-2.285
		c0.469-0.469,1.105-0.733,1.769-0.733s1.3,0.264,1.769,0.733c0.47,0.469,0.732,1.105,0.732,1.769c0,0.664-0.263,1.3-0.732,1.769
		l-0.99,0.99c0.14,0.525,0.193,1.069,0.159,1.609l1.716-1.715c0.703-0.704,1.098-1.657,1.098-2.652s-0.395-1.949-1.098-2.652
		c-0.704-0.704-1.658-1.099-2.652-1.099s-1.949,0.395-2.652,1.099L18.499,16.883z"/>
</g>
</svg>
