<svg width="40" height="40" viewBox="0 0 40 40" fill="none" xmlns="http://www.w3.org/2000/svg">
<circle cx="20" cy="20" r="19.5" stroke="#FF6D6D"/>
<path d="M16.0478 18.9692L14.3328 20.6842C13.6295 21.3875 13.2344 22.3414 13.2344 23.336C13.2344 24.3307 13.6295 25.2846 14.3328 25.9879C15.0361 26.6912 15.99 27.0864 16.9847 27.0864C17.9793 27.0864 18.9332 26.6912 19.6366 25.9879L21.9216 23.7017C22.3457 23.2775 22.6619 22.7578 22.8436 22.1861C23.0253 21.6144 23.0672 21.0075 22.9658 20.4163C22.8644 19.8251 22.6226 19.2669 22.2609 18.7884C21.8991 18.31 21.4278 17.9253 20.8866 17.6667L20.1541 18.3992C20.0797 18.4737 20.015 18.5572 19.9616 18.6479C20.3797 18.7681 20.7593 18.9954 21.0627 19.3072C21.3661 19.6191 21.5829 20.0047 21.6916 20.426C21.8003 20.8473 21.7971 21.2897 21.6825 21.7094C21.5678 22.1291 21.3456 22.5116 21.0378 22.8192L18.7541 25.1042C18.285 25.5733 17.6487 25.8368 16.9853 25.8368C16.3219 25.8368 15.6857 25.5733 15.2166 25.1042C14.7475 24.6351 14.4839 23.9988 14.4839 23.3354C14.4839 22.672 14.7475 22.0358 15.2166 21.5667L16.2078 20.5767C16.068 20.0526 16.0139 19.5093 16.0478 18.9679V18.9692Z" fill="#FF6D6D"/>
<path d="M18.4986 16.8834C18.0744 17.3076 17.7583 17.8274 17.5766 18.399C17.3949 18.9707 17.353 19.5776 17.4544 20.1688C17.5557 20.76 17.7975 21.3182 18.1593 21.7967C18.5211 22.2751 18.9923 22.6598 19.5336 22.9184L20.5023 21.9484C20.0785 21.8348 19.6921 21.6115 19.3818 21.3012C19.0716 20.9909 18.8486 20.6043 18.7351 20.1805C18.6216 19.7566 18.6216 19.3,103 18.7352 18.8865C18.8488 18.4627 19.072 18.0762 19.3823 17.7659L21.6661 15.4809C22.1352 15.0118 22.7714 14.7483 23.4348 14.7483C24.0982 14.7483 24.7345 15.0118 25.2036 15.4809C25.6727 15.95 25.9362 16.5863 25.9362 17.2497C25.9362 17.9131 25.6727 18.5493 25.2036 19.0184L24.2123 20.0084C24.3523 20.5334 24.4061 21.0772 24.3723 21.6172L26.0873 19.9022C26.7906 19.1989 27.1857 18.245 27.1857 17.2503C27.1857 16.2557 26.7906 15.3018 26.0873 14.5984C25.384 13.8951 24.4301 13.5 23.4354 13.5C22.4408 13.5 21.4869 13.8951 20.7836 14.5984L18.4986 16.8834Z" fill="#FF6D6D"/>
</svg>
