<svg width="19" height="14" viewBox="0 0 19 14" fill="none" xmlns="http://www.w3.org/2000/svg">
<path d="M8.93359 5.84204L17.4556 0H0.816406L8.5166 5.83203C8.57647 5.87678 8.64842 5.90177 8.72314 5.90356C8.79787 5.90536 8.87165 5.88387 8.93359 5.84204Z" fill="white"/>
<path d="M9.43262 6.57861C9.21592 6.72748 8.95815 6.80438 8.69531 6.7981C8.43248 6.79181 8.17809 6.70275 7.96875 6.5437L0.0346686 0.531738C0.0115601 0.605536 9.16529e-05 0.682435 6.69319e-07 0.759766V12.3198C-0.000130764 12.4195 0.0190954 12.518 0.0571296 12.6101C0.0951638 12.7022 0.15128 12.786 0.22168 12.8564C0.29208 12.9269 0.375744 12.9828 0.467774 13.021C0.559804 13.0592 0.658187 13.0786 0.757813 13.0786H17.4688C17.67 13.0786 17.863 12.9988 18.0054 12.8564C18.1477 12.7141 18.228 12.5211 18.228 12.3198V0.759766C18.2283 0.694281 18.2195 0.628961 18.2026 0.565674L9.43262 6.57861Z" fill="white"/>
</svg>
