<svg width="28" height="28" viewBox="0 0 28 28" fill="none" xmlns="http://www.w3.org/2000/svg">
<path fill-rule="evenodd" clip-rule="evenodd" d="M14.0003 0.666504C21.3641 0.666504 27.3337 6.636 27.3337 13.9998C27.3337 21.3636 21.3641 27.3332 14.0003 27.3332C6.63656 27.3332 0.666992 21.3636 0.666992 13.9998C0.666992 6.636 6.63656 0.666504 14.0003 0.666504ZM14.0003 18.3332C13.0797 18.3332 12.3336 19.0793 12.3336 19.9998C12.3336 20.9203 13.0798 21.6665 14.0002 21.6665C14.9207 21.6665 15.6669 20.9203 15.6669 19.9998C15.6669 19.0793 14.9207 18.3332 14.0002 18.3332M13.7777 6.49994C12.4799 6.49994 11.3891 6.8535 10.5066 7.55869C9.46087 8.40344 8.93843 9.65094 8.93843 11.3023H11.7736V11.2833C11.7736 10.6533 11.9062 10.1364 12.1711 9.73332C12.5364 9.19144 13.129 8.92019 13.9482 8.92019C14.4524 8.92019 14.8816 9.05257 15.2339 9.31682C15.6747 9.68294 15.8959 10.2371 15.8959 10.9808C15.8959 11.4473 15.7819 11.8629 15.5553 12.2287C15.3662 12.5563 15.0638 12.8774 14.6473 13.1928C13.7652 13.7977 13.1916 14.3965 12.9273 14.9892C12.7004 15.4807 12.5864 16.2621 12.5864 17.3332H15.2529C15.2529 16.6272 15.3467 16.0982 15.5367 15.7451C15.6877 15.4552 16.0031 15.1466 16.4821 14.8187C17.3143 14.2009 17.9062 13.6272 18.2594 13.0978C18.6877 12.4678 18.9024 11.7303 18.9024 10.8855C18.9024 9.13488 18.1904 7.89313 16.7652 7.16175C15.9086 6.72069 14.9128 6.49982 13.7778 6.49982" fill="white"/>
</svg>
