<?xml version="1.0" encoding="utf-8"?>
<!-- Generator: Adobe Illustrator 16.0.0, SVG Export Plug-In . SVG Version: 6.00 Build 0)  -->
<!DOCTYPE svg PUBLIC "-//W3C//DTD SVG 1.1//EN" "http://www.w3.org/Graphics/SVG/1.1/DTD/svg11.dtd">
<svg version="1.1" id="圖層_1" xmlns="http://www.w3.org/2000/svg" xmlns:xlink="http://www.w3.org/1999/xlink" x="0px" y="0px"
	 width="40px" height="40px" viewBox="0 0 40 40" enable-background="new 0 0 40 40" xml:space="preserve">
<circle fill="#FF6D6D" cx="20" cy="20" r="19.5"/>
<path fill="#FF6D6D" d="M20,40C8.972,40,0,31.028,0,20C0,8.972,8.972,0,20,0c11.028,0,20,8.972,20,20C40,31.028,31.028,40,20,40z
	 M20,1C9.523,1,1,9.523,1,20s8.523,19,19,19s19-8.523,19-19S30.477,1,20,1z"/>
<g>
	<path fill="#FFFFFF" d="M28.9,19.185c0-4.164-4.262-7.551-9.5-7.551s-9.5,3.388-9.5,7.551c0,3.733,3.384,6.86,7.944,7.45
		c0.31,0.066,0.731,0.2,0.837,0.459c0.096,0.236,0.063,0.604,0.031,0.842c0,0-0.111,0.656-0.135,0.797l-0.003,0.02
		c-0.045,0.252-0.161,0.889,0.826,0.482c1.014-0.418,5.471-3.156,7.463-5.403C28.24,22.353,28.9,20.849,28.9,19.185z"/>
</g>
<g>
	<path fill="#FF6D6D" d="M25.739,21.59h-2.671c-0.047,0-0.093-0.02-0.127-0.052c-0.033-0.032-0.051-0.077-0.051-0.124V17.35
		c0-0.046,0.018-0.091,0.051-0.124c0.034-0.033,0.08-0.051,0.127-0.051h2.671c0.048,0,0.093,0.018,0.126,0.051
		s0.053,0.077,0.053,0.124v0.66c0,0.046-0.02,0.091-0.053,0.124s-0.078,0.051-0.126,0.051h-1.813v0.685h1.813
		c0.048,0,0.093,0.018,0.126,0.051s0.053,0.077,0.053,0.124v0.671c0,0.046-0.02,0.09-0.053,0.123s-0.078,0.051-0.126,0.051h-1.813
		v0.685h1.813c0.048,0,0.093,0.02,0.126,0.052s0.053,0.077,0.053,0.123v0.659c0,0.023-0.004,0.047-0.012,0.068
		c-0.01,0.022-0.021,0.043-0.039,0.06c-0.016,0.017-0.036,0.03-0.059,0.039C25.787,21.584,25.764,21.59,25.739,21.59z"/>
</g>
<g>
	<path fill="#FF6D6D" d="M15.993,21.538c-0.034,0.032-0.079,0.052-0.126,0.052l0.006-0.004h-2.671c-0.047,0-0.093-0.018-0.126-0.051
		c-0.033-0.032-0.052-0.076-0.052-0.123v-4.059c0-0.046,0.019-0.091,0.052-0.123c0.033-0.033,0.079-0.051,0.126-0.051h0.673
		c0.047,0,0.092,0.018,0.125,0.051c0.034,0.032,0.052,0.077,0.052,0.123v3.228h1.814c0.047,0,0.092,0.019,0.126,0.051
		c0.033,0.032,0.052,0.077,0.052,0.124v0.658C16.045,21.461,16.026,21.506,15.993,21.538z"/>
</g>
<g>
	<path fill="#FF6D6D" d="M17.474,17.173H16.8c-0.1,0-0.182,0.08-0.182,0.178v4.061c0,0.098,0.082,0.178,0.182,0.178h0.673
		c0.1,0,0.182-0.08,0.182-0.178v-4.061C17.655,17.252,17.574,17.173,17.474,17.173z"/>
</g>
<g>
	<path fill="#FF6D6D" d="M21.387,17.172h0.674c0.023,0,0.047,0.005,0.068,0.014c0.021,0.009,0.042,0.022,0.059,0.039
		s0.029,0.036,0.038,0.058s0.013,0.044,0.013,0.068v4.046c0,0.047-0.02,0.09-0.053,0.123s-0.078,0.051-0.125,0.051h-0.67
		c-0.016,0-0.033-0.002-0.049-0.006h-0.041l-0.011-0.007c-0.019-0.013-0.034-0.027-0.046-0.046L19.344,19v2.436
		c0,0.046-0.019,0.091-0.052,0.124c-0.033,0.032-0.079,0.051-0.126,0.051h-0.674c-0.047,0-0.093-0.019-0.126-0.051
		c-0.033-0.033-0.052-0.078-0.052-0.124v-4.061c0-0.046,0.019-0.091,0.052-0.124s0.079-0.051,0.126-0.051h0.754l0.01,0.005h0.006
		l0.01,0.007h0.005l0.01,0.008l0.01,0.011c0.006,0.005,0.011,0.012,0.015,0.018l1.897,2.51v-2.413c0-0.046,0.019-0.091,0.053-0.124
		C21.295,17.19,21.34,17.172,21.387,17.172z"/>
</g>
</svg>
