<svg width="20" height="18" viewBox="0 0 20 18" fill="none" xmlns="http://www.w3.org/2000/svg">
<path d="M2.5 1.5L17.5 16.5" stroke="white" stroke-width="2" stroke-linecap="round" stroke-linejoin="round"/>
<path fill-rule="evenodd" clip-rule="evenodd" d="M4.49994 4.19187C4.13328 4.46687 3.79744 4.75687 3.49161 5.05187C2.47023 6.04383 1.62462 7.20194 0.990776 8.47687C0.91185 8.63989 0.87085 8.81866 0.87085 8.99978C0.87085 9.18091 0.91185 9.35968 0.990776 9.5227C1.62428 10.7979 2.46962 11.9563 3.49078 12.9485C4.94994 14.3527 7.09828 15.6669 9.99994 15.6669C11.8633 15.6669 13.4166 15.1252 14.6749 14.3652L11.3883 11.0794C10.9074 11.4006 10.33 11.5452 9.75443 11.4884C9.17889 11.4317 8.64082 11.1772 8.23188 10.7683C7.82295 10.3593 7.56843 9.82125 7.51171 9.24572C7.45498 8.67018 7.59955 8.09277 7.92078 7.61187L4.50078 4.19103L4.49994 4.19187ZM17.2216 12.1985C17.9302 11.3876 18.531 10.4885 19.0091 9.52353C19.088 9.36051 19.129 9.18174 19.129 9.00062C19.129 8.81949 19.088 8.64072 19.0091 8.4777C18.3756 7.20254 17.5303 6.04414 16.5091 5.05187C15.0499 3.6477 12.9024 2.33353 9.99994 2.33353C9.21005 2.33124 8.42329 2.43295 7.65994 2.63603L17.2216 12.1985Z" fill="white"/>
</svg>
