<svg width="12" height="12" viewBox="0 0 12 12" fill="none" xmlns="http://www.w3.org/2000/svg">
<g clip-path="url(#clip0_40002920_7805)">
<path d="M8.30183 0.164819L9.30293 1.16592C9.41725 1.2802 9.41725 1.46551 9.30295 1.57981C9.30294 1.57982 9.30298 1.57983 9.30295 1.57981L4.92185 5.95998L9.19624 10.2344C9.31054 10.3487 9.31054 10.534 9.19624 10.6483L8.16145 11.6831C8.04715 11.7974 7.86184 11.7974 7.74754 11.6831L3.00194 6.93748C2.50462 6.44017 2.49118 5.63875 2.95491 5.103L3.0244 5.02834L7.88791 0.16482C8.00222 0.0505193 8.18753 0.0505193 8.30183 0.164819Z" fill="white"/>
</g>
<defs>
<clipPath id="clip0_40002920_7805">
<rect width="12" height="12" fill="white" transform="matrix(-1 0 0 1 12 0)"/>
</clipPath>
</defs>
</svg>
