<svg width="274" height="332" viewBox="0 0 274 332" fill="none" xmlns="http://www.w3.org/2000/svg">
<path fill-rule="evenodd" clip-rule="evenodd" d="M99.1223 74.4252C94.4916 70.6046 90.9197 65.5495 90.2574 59.2929C88.3491 41.2658 113.822 40.7892 120.235 48.9213C126.649 57.0534 130.118 79.9507 124.174 82.6614C121.803 83.7425 116.233 83.1118 110.271 80.8193L117.894 104.145L97.9314 107.685L99.1223 74.4252Z" fill="#FDE0D2"/>
<path fill-rule="evenodd" clip-rule="evenodd" d="M110.615 40.5317C107.74 40.1834 103.73 40.6033 102.098 41.0896C102.643 38.6506 102.57 36.0538 101.827 33.6447C101.105 31.3038 99.674 29.4552 98.3064 27.4947C97.676 26.5911 96.9858 25.7036 96.082 25.0872C95.1614 24.4592 94.0784 24.1289 92.9941 24.072C91.8845 24.0137 90.7737 24.2319 89.7461 24.6455C89.2915 24.8285 88.9061 25.1196 88.4643 25.3218C88.0118 25.5289 87.7291 25.2728 87.332 25.0354C86.375 24.4635 85.0959 24.3242 84.0239 24.3833C82.8212 24.4496 81.6309 24.8439 80.5766 25.4302C79.5504 26.001 78.6089 26.7993 77.9767 27.8311C77.6952 28.2904 77.4559 28.7988 77.3368 29.3344C77.288 29.5542 77.2954 29.678 77.1045 29.7892C76.928 29.8921 76.7074 29.9333 76.5242 30.0339C74.7528 31.0066 73.3998 32.7489 72.854 34.7747C72.5356 35.9566 72.6338 37.9207 73.082 40.062C73.5302 42.2034 76.47 47.4771 78.6512 49.204C80.5981 50.7454 83.1972 51.5296 85.5927 51.6498C84.3746 53.6676 83.7447 56.0308 83.3863 58.3842C82.997 60.9405 82.9357 63.5359 83.2017 66.122C83.4545 68.5791 83.8929 71.1472 84.8823 73.4203C85.8078 75.5459 87.268 77.1654 89.3714 77.9842C90.3349 78.3592 91.3411 78.5909 92.3467 78.7874C93.3376 78.981 94.3296 79.1642 95.3368 79.1929C97.243 79.247 99.35 78.8061 100.507 77.0909C100.924 76.4726 101.368 75.7099 101.626 74.9991C101.718 74.7435 101.772 74.5775 101.569 74.3798C101.326 74.1429 100.974 73.9908 100.686 73.8229C99.0438 72.8653 97.8734 71.4058 97.31 69.5245C96.7384 67.6157 96.8157 65.0075 98.5591 63.8211C100.711 62.3566 103.5 63.1051 105.777 63.86C106.107 60.5851 107.423 57.4559 110.013 55.5214C112.878 53.3813 116.454 52.5561 119.446 50.6252C120.226 50.122 121.013 49.5683 121.505 48.7374C121.711 48.3902 121.945 47.9455 121.978 47.5286C122.021 46.9811 121.606 46.6021 121.273 46.2403C119.507 44.3218 113.49 40.8801 110.615 40.5317Z" fill="#434242"/>
<path fill-rule="evenodd" clip-rule="evenodd" d="M211.729 174.265C216.264 165.104 232.143 167.821 233.323 174.529C236.422 192.144 235.181 278.595 235.278 284.022C235.375 289.449 226.696 292.769 225.003 286.266C222.31 275.92 214.312 239.816 212.859 222.617C212.434 217.593 212.064 212.73 211.75 208.169C205.997 224.839 196.961 248.562 184.641 279.336L174.286 276.657C177.412 250.532 180.477 231.937 183.48 220.871C188.622 201.923 193.695 185.578 196.013 179.726C199.074 171.997 206.207 171.686 211.729 174.265Z" fill="#FDE0D2"/>
<path fill-rule="evenodd" clip-rule="evenodd" d="M172.53 262.768L191.593 179.03C197.222 164.959 222.009 176.297 220.627 184.124C217.488 201.893 196.055 261.42 195.12 266.714L172.53 262.768Z" fill="#F7CCD3"/>
<path fill-rule="evenodd" clip-rule="evenodd" d="M235.234 180.465C239.15 202.548 238.678 256.172 239.533 261.036L215.952 264.401C212.047 218.544 209.747 195.519 209.051 195.327C207.485 194.895 151.291 213.813 134.092 217.538C109.292 222.911 96.2456 209.42 90.2515 180.491L138.617 171.915C180.849 169.52 208.639 168.135 221.987 167.76C230.559 167.519 234.156 174.382 235.234 180.465Z" fill="#F7CCD3"/>
<path fill-rule="evenodd" clip-rule="evenodd" d="M172.554 274.443C171.438 276.895 170.836 278.746 170.75 279.996C170.646 281.516 170.746 283.751 171.052 286.702C172.815 286.824 188.659 287.919 218.586 289.986C220.102 285.987 219.541 283.733 216.902 283.223C214.263 282.714 212.072 282.267 210.33 281.883L188.915 270.506C188.503 270.287 187.992 270.444 187.773 270.856C187.769 270.863 187.766 270.87 187.762 270.877L186.105 274.225C183.562 275.204 181.52 275.641 179.98 275.534C178.728 275.448 177.035 274.823 174.899 273.66C174.08 273.213 173.054 273.516 172.608 274.335C172.588 274.371 172.57 274.407 172.554 274.443Z" fill="#E4E4E4"/>
<path fill-rule="evenodd" clip-rule="evenodd" d="M221.525 274.056C221.035 276.706 220.9 278.648 221.118 279.881C221.384 281.382 222.023 283.527 223.033 286.316C224.773 286.008 240.41 283.235 269.946 277.998C270.45 273.75 269.36 271.699 266.677 271.843C263.993 271.987 261.76 272.084 259.976 272.133L236.448 266.275C235.995 266.163 235.537 266.439 235.424 266.891C235.422 266.899 235.42 266.907 235.418 266.915L234.62 270.564C232.39 272.13 230.514 273.048 228.994 273.318C227.759 273.537 225.965 273.34 223.612 272.728C222.708 272.493 221.786 273.035 221.551 273.938C221.541 273.977 221.533 274.016 221.525 274.056Z" fill="#E4E4E4"/>
<path d="M264.287 279.002L226.026 285.786C224.418 286.071 223.346 287.606 223.631 289.214C223.916 290.822 225.451 291.895 227.059 291.61L265.32 284.826C266.928 284.541 268 283.006 267.715 281.397C267.429 279.789 265.895 278.716 264.287 279.002Z" fill="#FF6D6D"/>
<path fill-rule="evenodd" clip-rule="evenodd" d="M88.6043 185.717L177.603 169.936C182.197 169.121 186.581 172.186 187.396 176.781L194.625 217.55L92.318 235.691C90.4806 236.017 88.7268 234.791 88.4009 232.953L81.762 195.512C80.9472 190.917 84.0106 186.531 88.6043 185.717Z" fill="#FF6D6D"/>
<path fill-rule="evenodd" clip-rule="evenodd" d="M177.603 169.936L179.428 169.612C183.501 168.89 187.499 171.225 188.872 175.129L226.832 283.068L217.944 284.644" fill="#FF6D6D"/>
<path d="M225.624 300.446C233.893 298.98 239.407 291.086 237.94 282.815C236.474 274.544 228.582 269.027 220.313 270.493C212.044 271.96 206.53 279.853 207.997 288.125C209.464 296.396 217.356 301.912 225.624 300.446Z" fill="#434242"/>
<path fill-rule="evenodd" clip-rule="evenodd" d="M114.705 318.398C79.7925 324.588 46.4707 301.296 40.2783 266.373C34.0859 231.45 57.3678 198.121 92.2799 191.931C127.192 185.74 160.514 209.032 166.706 243.955C172.899 278.878 149.617 312.207 114.705 318.398ZM112.639 306.75C141.12 301.699 160.113 274.51 155.062 246.02C150.01 217.53 122.826 198.529 94.3453 203.579C65.8644 208.629 46.8713 235.818 51.923 264.308C56.9747 292.798 84.1582 311.8 112.639 306.75Z" fill="#434242"/>
<path d="M97.0814 199.661L90.4273 200.841L109.901 310.668L116.555 309.488L97.0814 199.661Z" fill="#434242"/>
<path d="M136.809 210.42L134.039 208.483C133.274 207.949 132.221 208.136 131.686 208.901L69.7566 297.555C69.2222 298.32 69.4091 299.374 70.1739 299.909L72.9438 301.845C73.7087 302.38 74.7619 302.193 75.2964 301.428L137.226 212.773C137.76 212.008 137.574 210.954 136.809 210.42Z" fill="#434242"/>
<path d="M158.684 247.094L158.093 243.766C157.93 242.847 157.054 242.234 156.135 242.397L49.6693 261.275C48.7506 261.438 48.1379 262.315 48.3008 263.234L48.891 266.562C49.0539 267.481 49.9308 268.094 50.8495 267.931L157.315 249.053C158.234 248.89 158.847 248.013 158.684 247.094Z" fill="#434242"/>
<path d="M148.227 288.496L150.163 285.726C150.697 284.961 150.51 283.907 149.745 283.372L61.11 221.415C60.3451 220.88 59.2918 221.067 58.7574 221.832L56.8221 224.603C56.2877 225.368 56.4745 226.421 57.2394 226.956L145.875 288.913C146.64 289.448 147.693 289.261 148.227 288.496Z" fill="#434242"/>
<path fill-rule="evenodd" clip-rule="evenodd" d="M159.455 79.9045L189.304 64.8472C194.373 59.2245 199.327 54.8923 204.165 51.8506C205.63 51.2962 208.17 51.0169 205.664 55.1327C203.159 59.2485 200.708 63.6905 201.868 65.0242C203.029 66.358 206.092 64.6542 207.456 66.851C208.365 68.3156 203.159 70.4031 191.837 73.1137L169.883 91.8909L159.455 79.9045ZM166.528 136L196.516 150.785C204.056 151.451 210.497 152.802 215.837 154.836C217.162 155.674 218.914 157.534 214.12 158.009C209.325 158.484 204.304 159.199 203.937 160.929C203.571 162.658 206.775 164.081 205.842 166.492C205.22 168.099 200.42 165.196 191.441 157.783L163.235 151.543L166.528 136Z" fill="#FDE0D2"/>
<path fill-rule="evenodd" clip-rule="evenodd" d="M116.012 90.8224C135.238 115.209 159.794 132.163 193.891 148.267L184.716 163.236C148.668 156.661 129.474 152.241 116.195 128.334C112.862 122.333 107.712 102.235 104.492 91.751L116.012 90.8224Z" fill="#F8E3E6"/>
<path fill-rule="evenodd" clip-rule="evenodd" d="M91.5407 187.771L155.586 176.414C133.231 134.728 120.434 105.665 117.195 89.2265C117.03 88.3885 115.214 87.182 114.562 87.4978C109.79 89.8076 104.321 90.23 98.1545 88.7653C87.3025 115.884 87.3845 146.89 91.5407 187.771Z" fill="#F2F2F2"/>
<path fill-rule="evenodd" clip-rule="evenodd" d="M103.627 87.8357C122.013 84.7308 152.392 82.8029 184.787 65.6804L191.184 82.0303C168.184 103.336 144.189 120.936 120.828 123.184C138.442 164.331 144.211 199.548 122.127 203.464C111.581 205.334 100.198 207.352 87.9778 209.519C76.0891 174.02 81.3795 120.938 90.073 93.0961C90.405 92.0329 91.154 90.0067 93.6847 89.558C95.8897 89.167 99.1973 88.5805 103.607 87.7985C103.614 87.8109 103.621 87.8233 103.627 87.8357Z" fill="#F7CCD3"/>
</svg>
