<svg width="309" height="427" viewBox="0 0 309 427" fill="none" xmlns="http://www.w3.org/2000/svg">
<path fill-rule="evenodd" clip-rule="evenodd" d="M127.851 85.2007C122.965 80.9868 119.246 75.4717 118.683 68.7344C117.059 49.3222 144.445 49.4113 151.144 58.2992C157.844 67.1871 161.029 91.8682 154.577 94.6402C152.004 95.7456 146.032 94.9366 139.68 92.3331L147.319 117.573L125.783 120.904L127.851 85.2007Z" fill="#FDE0D2"/>
<path fill-rule="evenodd" clip-rule="evenodd" d="M137.142 49.0273C134.231 49.0009 126.539 49.8632 125.13 50.0815C124.229 50.2208 123.285 50.5776 122.623 49.8331C122.082 49.2234 122.065 48.0533 121.813 47.2875C121.52 46.398 121.166 45.5301 120.809 44.6648C119.794 42.2026 118.482 39.9138 116.819 37.8316C113.699 33.9252 109.58 31.1244 104.733 29.8736C99.3807 28.4927 93.6255 28.8772 88.2952 30.1499C82.5911 31.5117 77.657 34.2276 72.4806 36.8659C67.5478 39.3799 62.2082 40.8952 56.6432 40.9011C51.0362 40.9071 46.4386 38.5789 41.3831 36.4761C36.2077 34.3234 30.5113 33.273 24.9876 34.5716C19.8315 35.7839 15.3549 38.6828 11.4848 42.229C7.86388 45.5469 5.03365 49.3026 3.85828 54.1541C2.5938 59.3729 3.42871 64.7574 7.42683 68.5782C13.222 74.1165 22.427 74.3564 29.851 73.0425C34.1452 72.2827 38.2551 70.8416 42.1016 68.7816C47.2314 66.0341 51.4191 62.0748 56.0883 58.6656C58.2796 57.0657 60.5851 55.6736 63.053 54.5459C65.4477 53.4513 67.864 52.7453 70.3653 53.9073C73.0114 55.1366 75.4038 56.3761 78.3027 56.9534C81.0837 57.5073 83.955 57.6136 86.7561 57.158C92.206 56.2717 97.3219 53.7395 102.445 51.7808C106.623 50.1838 111.104 48.5431 115.648 48.754C117.544 48.8421 120.348 49.1956 121.308 51.0036C110.445 54.758 108.194 69.2587 112.915 78.9176C115.462 84.1309 126.674 88.9514 130.203 85.4576C132.439 83.2441 130.54 81.0861 129.306 79.6584C126.943 76.9244 125.694 73.1362 128.873 70.4864C131.616 68.2009 135.463 72.0256 135.522 72.0115C136.343 71.8174 142.896 66.6452 146.927 59.9533C151.853 59.4875 152.095 56.1546 150.523 53.7029C148.95 51.2511 141.163 49.0641 137.142 49.0273Z" fill="#FF6D6D"/>
<path fill-rule="evenodd" clip-rule="evenodd" d="M119.935 198.071C124.97 219.904 239.263 268.794 240.154 270.525C240.549 271.294 233.699 298.595 219.604 352.43L229.263 354.561C254.589 295.938 265.949 263.913 263.343 258.487C259.611 250.719 228.505 228.077 170.024 190.562L119.935 198.071Z" fill="#FDE0D2"/>
<path fill-rule="evenodd" clip-rule="evenodd" d="M220.241 340.667L235.955 343.781C261.849 303.535 269.627 272.429 265.083 257.897C262.054 248.208 231.047 225.597 172.064 190.063L118.879 198.29C128.605 249.152 231.085 272.128 232.715 274.107C234.344 276.087 224.929 299.399 220.241 340.667Z" fill="#F7CCD3"/>
<path fill-rule="evenodd" clip-rule="evenodd" d="M215.982 351.208C214.459 353.671 213.566 355.562 213.305 356.883C212.986 358.489 212.79 360.886 212.714 364.074C214.578 364.443 231.323 367.76 262.952 374.026C265.113 369.969 264.821 367.49 262.076 366.588C259.331 365.687 257.056 364.913 255.251 364.268L233.963 349.232C233.554 348.943 232.987 349.04 232.698 349.45C232.693 349.457 232.688 349.464 232.683 349.471L230.461 352.815C227.616 353.514 225.38 353.702 223.752 353.379C222.43 353.117 220.709 352.221 218.59 350.691C217.777 350.104 216.641 350.287 216.054 351.1C216.029 351.135 216.005 351.171 215.982 351.208Z" fill="#E4E4E4"/>
<path fill-rule="evenodd" clip-rule="evenodd" d="M131.921 196.217L102.733 314.875L71.6748 416.178L82.4422 414.512L168.42 190.57L131.921 196.217Z" fill="#FDE0D2"/>
<path fill-rule="evenodd" clip-rule="evenodd" d="M70.3563 411.926C69.767 414.762 69.5753 416.844 69.7811 418.175C70.0314 419.793 70.6663 422.113 71.6857 425.134C73.5629 424.843 90.4336 422.233 122.298 417.304C122.94 412.752 121.818 410.522 118.931 410.614C116.043 410.706 113.641 410.757 111.723 410.767L86.577 403.92C86.0932 403.788 85.5941 404.073 85.4623 404.557C85.4601 404.565 85.4579 404.574 85.4559 404.582L84.5113 408.484C82.0774 410.114 80.0404 411.055 78.4003 411.309C77.0678 411.515 75.1443 411.262 72.6299 410.549C71.6649 410.275 70.6609 410.836 70.3872 411.8C70.3754 411.842 70.3651 411.884 70.3563 411.926Z" fill="#E4E4E4"/>
<path fill-rule="evenodd" clip-rule="evenodd" d="M72.7671 395.963L97.3865 396.748C111.678 366.689 171.845 243.196 172.302 189.97L119.039 198.21C96.4981 240.123 86.1234 365.588 72.7671 395.963Z" fill="#F7CCD3"/>
<path fill-rule="evenodd" clip-rule="evenodd" d="M208.883 159.151L239.189 139.841C244.006 133.284 248.839 128.119 253.687 124.347C255.195 123.597 257.881 123.025 255.643 127.695C253.406 132.365 251.262 137.378 252.646 138.679C254.03 139.981 257.124 137.829 258.818 140.032C259.948 141.5 254.604 144.292 242.786 148.408L221.323 170.845L208.883 159.151ZM78.0369 183.42L96.9896 184.224C83.8286 221.548 76.7372 241.347 75.7152 243.623C73.4157 248.743 77.5518 256.834 79.2871 261.163C72.9941 263.692 74.0485 253.468 66.1046 256.798C58.8539 259.837 53.2039 265.632 45.1701 260.238C44.1824 259.575 43.1643 257.183 45.914 255.449C52.7645 251.131 62.691 243.493 64.0922 240.908C66.0029 237.381 70.6511 218.219 78.0369 183.42Z" fill="#FDE0D2"/>
<path fill-rule="evenodd" clip-rule="evenodd" d="M135.759 104.046L143.313 101.515C162.75 115.295 175.74 153.616 187.81 157.087C199.222 160.369 213.579 153.263 230.526 144.047L237.921 155.474C224.346 175.635 191.919 195.91 176.524 189.581C151.911 179.462 139.2 131.687 135.759 104.046Z" fill="white"/>
<path fill-rule="evenodd" clip-rule="evenodd" d="M117.019 206.792C148.132 201.979 171.018 198.438 185.677 196.17C188.814 195.685 187.522 191.246 186.715 189.031C177.399 163.458 152.568 138.18 146.758 100.625L126.473 100.583C114.168 129.462 113.522 162.774 117.019 206.792Z" fill="#DDE3E9"/>
<path fill-rule="evenodd" clip-rule="evenodd" d="M106.039 181.14C95.9482 208.552 86.9955 228.548 79.1807 241.129L64.3534 240.537C64.7294 181.611 85.0101 135.026 125.195 100.781L128.77 100.228L133.037 99.5679C160.191 157.422 171.34 197.044 166.482 218.435L104.679 227.996C103.375 213.096 104.097 197.013 106.039 181.14Z" fill="white"/>
</svg>
