<?xml version="1.0" encoding="utf-8"?>
<!-- Generator: Adobe Illustrator 16.0.0, SVG Export Plug-In . SVG Version: 6.00 Build 0)  -->
<!DOCTYPE svg PUBLIC "-//W3C//DTD SVG 1.1//EN" "http://www.w3.org/Graphics/SVG/1.1/DTD/svg11.dtd">
<svg version="1.1" id="圖層_1" xmlns="http://www.w3.org/2000/svg" xmlns:xlink="http://www.w3.org/1999/xlink" x="0px" y="0px"
	 width="230px" height="337px" viewBox="45 35 230 337" enable-background="new 45 35 230 337" xml:space="preserve">
<path fill="#FFFFFF" d="M158.614,66.317c-3.881-4.586-6.507-10.207-6.068-16.504c1.264-18.146,26.351-14.154,31.231-4.996
	c4.879,9.159,4.3,32.39-2.007,34.027c-2.515,0.653-7.873-0.946-13.326-4.256l3.422,24.382h-20.21L158.614,66.317z"/>
<path fill="#FDA2B1" d="M169.454,51.817c0.774,10.851,2.82,16.276,6.14,16.276c4.979,0,9.203-3.183,11.389-3.183
	c1.592,0,1.236,2.007,0.181,3.495c-0.87,1.228-5.112,2.411-5.112,4.314c0,1.903,3.352,0.431,3.352,1.56
	c0,1.867,0.589,5.377-2.629,5.377c-3.258,0-12.596-1.195-14.196-6.062c-1.032-3.141-1.7-9.65-2.003-19.527
	c-0.197-0.023-0.398-0.036-0.602-0.036c-2.792,0-5.054,2.277-5.054,5.087c0,1.426,0.583,2.716,1.522,3.639
	c-1.169,1.662-2.479,3.397-3.981,5.188c-5.64-3.407-9.826-13.382-4.311-22.964c1.524-4.694,4.975-7.202,9.05-8.366
	c3.301-1.39,6.729-1.547,9.621-0.713c5.67,0.489,10.734,2.23,12.169,3.265c0,5.406-1.04,7.009-9.925,6.868
	C172.881,47.197,171.202,49.196,169.454,51.817z"/>
<path fill="#FDA2B1" d="M144.92,169.348l30.53,107.878l22.274,79.512h16.248l-23.672-187.39H144.92z"/>
<path fill="#FF6D6D" d="M136.754,169.348c-0.706,55.603-3.114,85.928-3.855,90.979c-0.742,5.053-11.953,37.188-33.634,96.41h16.831
	c27.601-56.813,43.009-88.949,46.223-96.41c3.214-7.459,13.133-37.787,28.074-90.979H136.754z"/>
<path fill="#FDA2B1" d="M97.762,372l0.842-17.807h17.684c8.385,5.936,19.332,10.74,32.842,14.415V372h-32l-10.948-1.696V372H97.762z
	"/>
<path fill="#FDA2B1" d="M195.445,372l0.842-17.807h17.684c8.387,5.936,19.334,10.74,32.843,14.415V372h-32l-10.947-1.696V372
	H195.445z"/>
<path fill="#FFFFFF" d="M215.959,155.451l25.42,21.699c7.131,2.487,13.032,5.371,17.705,8.653c1.077,1.138,2.321,3.376-2.431,2.67
	c-4.751-0.706-9.78-1.234-10.554,0.361c-0.772,1.594,1.981,3.759,0.496,5.878c-0.99,1.414-4.93-2.582-11.818-11.986l-25.766-12.948
	L215.959,155.451z M100.85,146.061l14.915,2.181c-16.01,34.976-24.593,53.474-25.75,55.492c-2.602,4.542,0.458,12.453,1.654,16.641
	c-6.045,1.759-4.115-7.646-11.758-5.299c-6.977,2.139-12.733,6.993-19.643,1.223c-0.85-0.711-1.565-3.03,1.135-4.383
	c6.727-3.367,16.604-9.53,18.139-11.801C81.636,197.016,88.739,178.999,100.85,146.061z"/>
<path fill="#DFE4E7" d="M163.19,84.837l9.241-3.077c12.537,31.534,31.234,62.045,62.474,87.816l-7.726,13.42
	c-27.455-16.284-53.443-28.934-63.989-53.37C159.65,121.426,162.901,94.644,163.19,84.837z"/>
<path fill="#434242" d="M131.445,173.587c26.474,2.826,47.313,2.826,62.516,0c1.883-0.35,2.18-3.525,1.307-5.68
	c-13.602-33.558-22.93-62.839-22.93-86.147c-2.496,1.267-6.863,1.457-13.104,0.57C142.465,106.35,134.757,133.911,131.445,173.587z"
	/>
<path fill="#DDE3E9" d="M155.066,80.316h6.987c1.628,9.636,6.761,140.129,22.604,182.816h-85.73
	c1.859-39.105,16.521-86.079,31.373-125.388c-13.133,12.101-24.58,32.605-34.34,61.512l-16.058-4.151
	c11.94-51.805,36.488-89.882,73.645-114.23c0.081-0.188,0.161-0.374,0.24-0.559h0.619c0.228-0.147,0.456-0.293,0.684-0.439
	L155.066,80.316z"/>
</svg>
