<svg width="170" height="230" viewBox="0 0 170 230" fill="none" xmlns="http://www.w3.org/2000/svg">
<g clip-path="url(#clip0_125_2453)">
<path fill-rule="evenodd" clip-rule="evenodd" d="M5.16031 8.21391C2.67319 6.97357 -0.642402 8.41209 0.740711 11.691C2.22227 15.2023 7.70001 15.2457 10.7936 15.1761C10.484 15.1598 9.4869 11.9399 9.14555 11.4533C8.13887 10.018 6.68932 8.97781 5.16031 8.21391ZM33.8164 71.1671C34.4439 71.7067 33.8675 71.2177 33.8164 71.1671V71.1671ZM2.7644 24.0954C1.30895 25.2144 1.23954 27.19 2.42845 28.5272C3.84417 30.1192 6.42923 30.0612 8.35889 29.9061C9.23177 29.8358 13.8926 29.4605 12.7878 28.6934C12.8728 28.7257 13.0503 28.804 13.2402 28.9105C13.3424 29.2861 13.4497 29.6604 13.5616 30.033C13.5342 30.0492 13.5108 30.0664 13.4815 30.0825C13.5132 30.0685 13.5355 30.0534 13.5635 30.0392C14.6843 33.7635 16.2797 37.3097 18.3687 40.6274C17.5871 40.3178 16.7776 40.0835 15.9565 39.9792C13.525 39.6699 8.40994 41.5703 11.1298 44.8263C13.7377 47.9476 17.7977 44.5989 20.7575 44.1371C23.6283 48.1668 26.7936 52.0286 30.1107 55.7613C29.9075 55.8254 29.7291 55.9588 29.6268 56.1664C28.2961 55.4875 26.9094 54.5161 25.6778 54.2531C23.9006 53.8742 20.2563 53.6444 18.9131 55.2443C17.261 57.2115 19.0319 58.8094 20.9838 59.1867C23.8141 59.7339 27.5191 58.3432 30.2424 57.4035C30.554 57.4589 30.894 57.3672 31.0972 57.1167C31.1574 57.0968 31.2175 57.0773 31.2761 57.0584C34.6353 60.7729 38.123 64.3649 41.5895 67.8781C41.5526 67.8761 41.5157 67.8739 41.4773 67.8718C40.573 67.2754 39.6031 66.786 38.5517 66.5296C36.1197 65.9335 33.2582 65.9305 31.2846 67.7004C29.3186 69.4626 28.6222 72.5446 30.6561 74.5234C34.7271 78.4844 40.7252 69.453 42.7788 69.076C46.3015 72.6088 50.0264 75.9095 53.8099 79.1436C53.3802 79.012 52.9396 78.9153 52.4841 78.8718C48.7741 78.5146 40.0659 83.0891 44.619 87.5898C48.5868 91.5118 53.1792 83.963 56.3767 81.323C59.9419 84.3373 63.5266 87.331 67.0107 90.4413C65.1105 89.9339 63.2741 89.8591 61.237 90.4782C59.1292 91.1197 55.7281 92.7203 57.0605 95.5825C58.4157 98.4931 62.5 97.1687 64.6273 96.2445C65.7875 95.7406 68.1137 94.0395 70.1561 93.323C75.7157 98.6019 80.5312 104.416 84.1769 111.266C86.4529 115.542 88.18 120.111 89.3957 124.807C90.1717 127.804 91.7006 132.838 91.3945 136.74C92.8535 128.931 90.2155 119.552 87.3737 112.573C84.7608 106.154 80.8503 100.52 76.27 95.4482C77.4194 91.9713 87.0941 86.9565 81.3104 83.7262C78.2392 82.0182 75.0935 84.8523 74.4222 87.8538C73.9611 89.9164 74.6636 92.508 75.4092 94.51C73.9683 92.964 72.4704 91.4676 70.927 90.021C68.7939 88.0216 66.6097 86.0803 64.4047 84.1633C68.0383 80.7302 71.4772 70.9155 66.6052 69.3,103C59.4109 66.9467 62.8749 80.3344 63.3768 82.8435C63.5193 82.852 63.6304 82.8087 63.7121 82.7159C63.6716 82.9457 63.6247 83.1914 63.5678 83.4391C59.3474 79.7894 55.0644 76.2114 50.9225 72.4745C51.2956 72.1971 51.8889 71.1371 52.3551 70.573C53.4073 69.3012 54.4141 67.9726 55.1499 66.4848C56.3121 64.1337 57.4331 60.3834 54.3522 59.0004C51.0016 57.4937 49.4093 61.7353 49.386 64.2656C49.37 66.0157 49.8439 67.6781 50.0908 69.3934C50.1679 69.9284 49.8708 72.3398 50.5954 71.3025C50.5613 71.685 50.5563 71.962 50.5733 72.1584C49.8297 71.4841 49.0918 70.8025 48.3587 70.1161C48.3926 70.0294 48.4178 69.9348 48.4235 69.8253C48.4628 69.0709 47.708 68.7804 47.1787 69.0013C46.2112 68.0766 45.2532 67.1403 44.3123 66.1854C42.318 64.1624 40.2949 62.0816 38.2857 59.9565C38.7216 59.5799 38.5482 59.0584 38.9559 58.6585C39.3629 58.2596 40.1645 58.0389 40.6431 57.6684C41.8469 56.7358 42.8451 55.3771 43.567 54.04C44.7588 51.8306 46.2991 47.1959 42.8173 46.1428C39.2285 45.0557 37.4069 49.5172 37.1762 52.3065C37.1312 52.8469 37.5336 57.7159 37.8416 59.484C34.1238 55.5346 30.4673 51.437 27.1545 47.2681C28.159 47.2588 31.0067 45.1891 31.5824 44.6243C32.9871 43.2468 35.2201 40.203 32.7574 38.5922C30.5677 37.1636 27.8687 39.2328 26.9323 41.2439C26.7784 41.575 26.2357 44.6571 26.1934 46.04C24.8222 44.2721 23.5143 42.4939 22.2974 40.7098C21.4859 39.5238 20.7276 38.3064 20.018 37.0631C20.1888 36.9657 20.3495 36.7959 20.5013 36.5848C24.1533 35.9614 28.8094 30.2307 24.5197 28.2368C22.4774 27.2887 20.2625 29.2458 19.262 30.8481C19.0571 31.1759 18.7251 32.824 18.4549 34.1239C16.4136 30.0051 14.8537 25.6446 13.6664 21.1737C13.9843 21.0943 14.2536 20.8501 14.2891 20.43C16.0621 19.4134 17.4623 18.5669 18.7 16.612C19.469 15.3977 20.8538 12.6235 18.5944 11.9496C15.6541 11.0727 13.8072 15.5893 13.5666 17.814C13.5386 18.0723 13.5396 18.8233 13.5493 19.5116C13.4473 19.4976 13.3441 19.4992 13.2429 19.5172C12.5676 16.7487 12.0285 13.9447 11.5999 11.1359C13.2047 10.6165 13.4822 2.14002 12.4137 0.933077C10.0253 -1.76942 8.34029 2.13446 8.46779 4.19775C8.61842 6.63056 9.71455 8.84361 11.0198 10.8076C11.1598 11.0156 11.1199 11.0055 11.1561 10.7158C11.1762 10.859 11.2239 10.9647 11.2945 11.0413C11.2271 12.3219 11.0959 13.633 11.1589 14.7662C11.3397 18.0113 11.7155 21.2754 12.2612 24.4787C12.394 25.2578 12.546 26.0306 12.7164 26.7966C11.4265 25.6914 9.68741 24.7095 9.0069 24.4024C7.24068 23.6062 4.51872 22.7465 2.7644 24.0954ZM91.6017 136.751C91.5197 137.882 91.3167 138.918 90.9375 139.773C91.2219 138.8 91.44 137.789 91.6017 136.751Z" fill="#FF6D6D"/>
<g opacity="0.7">
<path fill-rule="evenodd" clip-rule="evenodd" d="M53.5401 84.8609C60.4476 84.5005 68.9902 88.5555 69.7271 96.1069C70.2624 101.594 70.0967 107.065 70.9251 112.543C71.5876 116.922 72.9886 121.125 74.8995 125.113C76.7369 128.948 80.5484 132.213 81.5398 136.31C82.1716 138.921 81.8179 142.593 80.9466 145.147C79.8869 148.252 80.4501 148.007 82.5615 150.612C86.6989 155.717 90.4244 160.953 93.0589 167.05C96.8538 175.833 99.3418 186.099 97.9333 195.713C97.7541 196.934 97.5417 201.315 95.8702 201.621C94.0033 201.963 94.8762 199.458 94.9759 198.648C95.6111 193.484 96.1755 188.97 95.4093 183.725C92.4527 163.487 78.0175 150.154 68.6181 132.978C68.1014 132.092 67.0106 129.983 66.2522 128.592C65.0548 126.395 63.851 122.215 62.23 120.586C59.1771 117.517 61.9838 123.687 62.5787 124.864C63.3308 126.354 64.1582 127.937 64.9289 129.243C68.4554 135.294 72.3917 141.899 76.0339 148.137C60.2819 151.746 49.1883 132.701 44.9612 120.179C41.4784 109.863 37.3114 85.7436 53.5401 84.8609Z" fill="white"/>
<path fill-rule="evenodd" clip-rule="evenodd" d="M146.122 65.7034C134.575 66.6248 127.162 74.288 123.711 85.0063C121.851 90.7824 121.638 96.7162 120.604 102.652C119.05 111.583 115.704 118.351 109.166 124.713C107.141 126.684 105.649 128.707 104.588 130.872C102.483 133.033 100.65 135.478 99.3029 138.468C97.5826 142.287 97.0958 146.868 99.0821 150.675C99.6161 151.699 100.948 153.753 102.329 154.687C97.1597 165.759 94.3173 177.886 94.6377 189.997C94.8313 197.308 95.1862 204.622 95.6002 211.924C95.7117 213.885 96.3465 217.123 97.3001 213.834C98.1728 210.827 97.0784 206.105 96.9771 202.963C96.4844 187.657 96.0632 173.739 102.328 159.438C102.985 157.94 103.682 156.453 104.407 154.978C104.45 154.953 104.489 154.923 104.529 154.894C104.557 154.915 104.582 154.938 104.61 154.959C104.656 154.876 104.72 154.777 104.794 154.667C105.002 154.451 105.183 154.178 105.356 153.873C105.912 153.099 106.541 152.189 106.544 151.691C106.544 151.687 106.542 151.681 106.542 151.677C110.42 145.31 114.863 139.293 119.4 133.395C119.366 133.438 124.322 126.651 123.556 130.404C123.186 132.213 119.541 135.657 118.069 137.573C114.812 141.835 110.988 147.235 107.81 152.456C107.382 152.704 106.778 153.917 106.341 154.821C106.099 155.279 105.874 155.741 105.653 156.143C116.914 159.885 125.674 152.348 131.647 143.581C131.654 143.571 131.66 143.56 131.667 143.55C133.485 141.127 135.347 138.722 137.673 136.807C141.554 133.612 145.71 133.048 150.286 131.476C162.765 127.188 168.071 110.923 169.756 98.8542C171.657 85.2389 162.357 64.3609 146.122 65.7034Z" fill="#F7CCD3"/>
<path fill-rule="evenodd" clip-rule="evenodd" d="M123.311 27.5749C111.46 39.9801 105.734 57.1863 101.2 73.3618C96.1368 91.4283 92.7922 109.773 92.6638 128.557C92.5797 140.898 92.2459 153.316 92.9621 165.642C93.2162 170.02 93.6501 174.406 94.34 178.736C94.3969 179.092 95.9405 188.762 97.4174 186.509C98.2574 185.227 95.8352 176.478 95.6521 175.02C94.6225 166.812 94.3833 158.544 94.4335 150.276C94.516 136.664 94.117 123.122 95.4888 109.56C95.6933 107.535 95.8551 105.409 96.3333 103.428C96.8411 101.322 96.1944 102.241 97.8483 101.407C99.4554 100.597 101.441 100.713 103.109 99.6959C109.723 95.6622 113.106 85.3013 115.74 78.5031C118.752 70.729 120.582 62.4391 122.044 54.2579C123.118 48.2471 123.885 42.2727 124.32 36.1845C124.457 34.2657 124.465 32.2591 124.84 30.3724C124.941 29.8634 125.448 28.9631 125.429 28.5124C125.39 27.5586 124.818 26.9976 124.771 26.1961C124.275 26.6451 123.788 27.105 123.311 27.5749Z" fill="#F7CCD3"/>
<path fill-rule="evenodd" clip-rule="evenodd" d="M58.6895 192.854C58.6895 213.369 75.2256 230 95.624 230C116.022 230 132.559 213.369 132.559 192.854" fill="#FF6D6D"/>
<path fill-rule="evenodd" clip-rule="evenodd" d="M98.5883 192.972H96.6367C96.7721 190.51 96.951 188.051 97.3603 185.616C98.9259 176.303 103.821 162.624 114.558 161.112C114.954 161.056 116.411 161.046 118.176 161.151C119.012 160.681 119.949 160.396 120.936 160.331C130.077 159.653 140.286 167.07 144.695 174.788C148.25 181.011 147.651 189.183 145.455 195.794C143.985 200.22 140.776 206.531 135.425 206.593C128.731 206.669 128.408 198.348 128.278 193.483C128.106 187.015 127.294 181.381 122.226 176.972C121.045 175.946 119.755 175.042 118.562 174.029C116.694 172.444 114.629 170.821 114.389 168.198C114.056 164.58 116.087 163.929 119.188 164.601C119.716 164.716 125.04 167.119 124.252 165.219C124.011 164.639 123.132 164.179 122.023 163.835C119.152 163.521 115.728 163.157 114.743 163.374C104.121 165.718 99.9847 180.517 98.8863 189.919C98.7678 190.934 98.6719 191.953 98.5883 192.972Z" fill="white"/>
</g>
</g>
<defs>
<clipPath id="clip0_125_2453">
<rect width="170" height="230" fill="white"/>
</clipPath>
</defs>
</svg>
