<svg width="59" height="97" viewBox="0 0 59 97" fill="none" xmlns="http://www.w3.org/2000/svg">
<path d="M0 25.9489C0.976582 24.4824 0.534199 22.3909 1.92812 21.116C3.03826 21.466 3.19685 22.3659 3.57246 23.0742C8.72247 32.7815 14.8574 35.8229 25.8168 33.7731C35.8164 31.8983 45.3401 28.4153 54.8305 24.8656C56.0742 24.399 57.6434 23.1991 58.6617 24.424C59.6884 25.6656 58.1108 26.9488 57.4681 28.082C55.8989 30.8734 53.8957 33.3648 51.6921 35.6812C48.9042 38.5976 46.3668 41.7223 44.3051 45.1886C43.0781 47.2467 40.3738 49.4215 41.8595 51.7379C43.1366 53.7377 45.9828 51.9129 48.1196 51.7129C54.6886 51.1047 57.5599 54.121 56.4415 60.5537C55.6402 65.1449 54.0209 69.4278 50.9158 72.9441C42.2935 82.6931 32.1271 90.5507 20.8421 97C21.8938 93.3254 24.9571 90.834 26.4178 87.376C29.0471 81.1349 26.9186 77.677 20.1243 77.727C16.2179 77.752 12.3617 77.6436 8.69743 76.1105C2.72108 73.6107 1.06005 67.2197 5.16671 62.1619C6.1099 60.9953 7.36193 60.0621 8.54718 59.1205C12.2281 56.2125 12.5704 54.0627 9.03965 51.113C4.87457 47.63 1.84466 43.5138 0.0250406 38.4476V25.9489H0Z" fill="url(#paint0_linear_125_2377)"/>
<path d="M39.372 9.68383C39.3052 15.0416 35.1819 19.0412 29.7564 18.9996C24.6064 18.9662 20.3996 14.5667 20.4497 9.27554C20.5081 4.0844 24.8735 -0.0901764 30.1571 0.00148095C35.4907 0.0931383 39.4388 4.23438 39.372 9.6755V9.68383Z" fill="url(#paint1_linear_125_2377)"/>
<defs>
<linearGradient id="paint0_linear_125_2377" x1="0" y1="59.058" x2="59" y2="59.058" gradientUnits="userSpaceOnUse">
<stop stop-color="#E65761"/>
<stop offset="1" stop-color="#F58255"/>
</linearGradient>
<linearGradient id="paint1_linear_125_2377" x1="20.4492" y1="9.49994" x2="39.3728" y2="9.49994" gradientUnits="userSpaceOnUse">
<stop stop-color="#E65761"/>
<stop offset="1" stop-color="#F58255"/>
</linearGradient>
</defs>
</svg>
