<svg width="249" height="297" viewBox="0 0 249 297" fill="none" xmlns="http://www.w3.org/2000/svg">
<path fill-rule="evenodd" clip-rule="evenodd" d="M142.658 58.3546C146.356 54.0005 148.859 48.6646 148.441 42.6855C147.236 25.4581 123.325 29.2479 118.674 37.9428C114.023 46.6377 114.576 68.6931 120.587 70.2471C122.984 70.8669 128.091 69.3487 133.288 66.2067L130.026 89.355H149.289L142.658 58.3546Z" fill="white"/>
<path fill-rule="evenodd" clip-rule="evenodd" d="M129.654 27.9216C132.193 27.5041 139.029 27.217 140.29 27.2172C141.095 27.2172 141.969 27.4018 142.446 26.6598C142.836 26.0523 142.693 25.0248 142.81 24.3198C142.945 23.5007 143.138 22.6923 143.332 21.8859C143.886 19.5912 144.723 17.4081 145.894 15.3584C148.092 11.513 151.312 8.50089 155.377 6.74814C159.865 4.81283 164.945 4.36968 169.773 4.76223C174.94 5.18221 179.617 6.89288 184.495 8.50274C189.144 10.0368 194.013 10.6406 198.875 9.89148C203.774 9.13678 207.475 6.47383 211.607 3.94637C215.837 1.35885 220.671 -0.333483 225.672 0.0555438C230.34 0.418808 234.642 2.35189 238.502 4.93422C242.114 7.3503 245.093 10.2572 246.776 14.3483C248.586 18.7492 248.584 23.5799 245.608 27.4692C241.294 33.1069 233.285 34.5647 226.623 34.4198C222.769 34.3362 218.984 33.6306 215.345 32.3472C210.493 30.6354 206.3 27.7341 201.76 25.3801C199.63 24.2755 197.428 23.3682 195.12 22.7147C192.88 22.0803 190.674 21.7893 188.646 23.1464C186.501 24.582 184.578 25.9923 182.124 26.891C179.769 27.7532 177.276 28.2354 174.767 28.216C169.887 28.1781 165.076 26.653 160.335 25.6314C156.47 24.7985 152.334 23.9684 148.393 24.769C146.749 25.1032 144.347 25.793 143.753 27.507C153.749 29.3241 157.675 41.7233 154.857 50.8255C153.336 55.7382 144.193 61.4812 140.639 58.8985C138.386 57.2623 139.754 55.1142 140.639 53.6962C142.333 50.9806 142.913 47.4923 139.777 45.6017C137.073 43.9711 134.229 47.8433 134.175 47.8391C133.432 47.7803 127.009 44.137 122.583 38.8204C118.217 39.08 117.555 36.1928 118.597 33.8317C119.64 31.4705 126.147 28.499 129.654 27.9216Z" fill="#434242"/>
<path d="M157.317 296.24C123.184 296.24 95.5139 269.75 95.5139 237.072C95.5139 204.395 123.184 177.905 157.317 177.905C191.449 177.905 219.119 204.395 219.119 237.072C219.119 269.75 191.449 296.24 157.317 296.24Z" fill="#E6E6E6"/>
<path fill-rule="evenodd" clip-rule="evenodd" d="M40.5266 287.111C50.8105 264.283 58.2477 244.405 61.233 233.917C66.3445 215.959 70.2331 200.158 71.2159 194.257C73.5595 180.185 53.1872 179.365 50.4944 186.359C46.4188 196.944 39.3036 231.721 30.7542 284.251L40.5266 287.111ZM159.814 215.469C150.379 211.729 117.336 200.022 101.4 196.711C96.8202 195.759 92.3817 194.875 88.2086 194.076C75.8048 191.701 69.3785 214.144 81.3249 215.868C111.076 220.163 153.253 224.598 156.863 225.095C161.922 225.793 165.744 217.82 159.814 215.469Z" fill="white"/>
<path fill-rule="evenodd" clip-rule="evenodd" d="M80.5958 187.9L131.633 161.843V156.17H125.563C76.1871 168.789 50.956 176.876 49.8698 180.431C49.8581 180.469 49.8474 180.507 49.8377 180.546C49.8128 180.579 49.7884 180.611 49.7644 180.645C39.9791 194.142 34.1187 260.037 32.1953 264.971L50.9461 267.776C58.1188 241.1 81.067 222.517 80.4574 190.567C80.622 189.63 80.6636 188.741 80.5958 187.9Z" fill="#FFDDCD"/>
<path fill-rule="evenodd" clip-rule="evenodd" d="M127.391 203.376C132.061 202.438 136.361 201.601 140.041 200.954C163.81 196.773 170.741 184.012 166.643 156.17H122.849C115.696 158.231 78.5182 173.868 59.2289 182.185C46.4622 187.689 50.4867 207.533 57.7165 212.697C57.7557 213.013 57.8858 213.229 58.1175 213.325C97.0086 229.492 127.775 221.009 138.053 223.719L142.807 208.679L127.391 203.376Z" fill="#FEE8DE"/>
<path fill-rule="evenodd" clip-rule="evenodd" d="M156.577 213.081C159.127 213.328 160.937 213.713 162.008 214.237C163.31 214.874 165.105 216.022 167.392 217.679C166.656 219.192 160.046 232.791 147.562 258.476C143.548 257.824 141.956 256.287 142.787 253.867C143.618 251.446 144.289 249.425 144.798 247.804L145.575 224.712C145.59 224.267 145.962 223.92 146.405 223.935C146.413 223.936 146.42 223.936 146.428 223.936L149.972 224.162C151.985 222.53 153.313 221.052 153.955 219.73C154.477 218.656 154.765 216.961 154.819 214.644C154.84 213.755 155.575 213.053 156.462 213.075C156.5 213.075 156.539 213.078 156.577 213.081Z" fill="#E4E4E4"/>
<path fill-rule="evenodd" clip-rule="evenodd" d="M45.2058 282.879C46.1038 285.283 46.5527 287.082 46.5527 288.275C46.5527 289.727 46.3116 291.845 45.8294 294.63C44.1503 294.63 29.0604 294.63 0.559498 294.63C-0.616905 290.729 0.0621834 288.624 2.59676 288.313C5.13134 288.002 7.23686 287.721 8.91332 287.47L29.9543 278.062C30.3592 277.881 30.8337 278.064 31.0142 278.47C31.0173 278.477 31.0203 278.484 31.0232 278.491L32.3757 281.781C34.722 282.879 36.6287 283.428 38.0957 283.428C39.2875 283.428 40.9335 282.945 43.0336 281.98C43.8395 281.609 44.7924 281.964 45.1618 282.772C45.1777 282.807 45.1924 282.843 45.2058 282.879Z" fill="#E4E4E4"/>
<path fill-rule="evenodd" clip-rule="evenodd" d="M81.8698 134.127L52.7867 121.317C47.6921 116.225 42.7724 112.355 38.0279 109.707C36.6091 109.254 34.1853 109.117 36.7713 112.905C39.3574 116.694 41.9076 120.795 40.8743 122.123C39.841 123.45 36.8477 121.985 35.6652 124.144C34.8768 125.584 39.9224 127.305 50.8019 129.31L72.5833 146.059L81.8698 134.127ZM199.449 137.655L183.001 140.928C199.542 171.844 208.412 188.23 209.613 190.085C212.313 194.259 209.793 201.908 208.863 205.936C214.702 207.299 212.399 198.485 219.788 200.325C226.533 202.005 232.251 206.316 238.54 200.502C239.314 199.787 239.88 197.553 237.243 196.407C230.676 193.552 220.972 188.206 219.399 186.131C217.253 183.3 210.603 167.142 199.449 137.655Z" fill="white"/>
<path fill-rule="evenodd" clip-rule="evenodd" d="M138.299 75.9373L131.358 74.7434C116.241 89.4508 110.072 124.785 99.9979 129.462C90.473 133.884 76.9707 129.605 60.9211 123.827L56.006 134.841C70.5886 150.664 101.655 164.032 114.248 156.401C134.381 144.2 139.028 100.62 138.299 75.9373Z" fill="#EF4358"/>
<path fill-rule="evenodd" clip-rule="evenodd" d="M168.555 163.415C140.726 163.415 120.256 163.415 107.144 163.415C104.338 163.415 104.867 159.351 105.272 157.3C109.954 133.633 128.229 108.121 128.229 74.4309L145.943 71.645C160.595 95.2785 165.661 124.376 168.555 163.415Z" fill="#DDE3E9"/>
<path fill-rule="evenodd" clip-rule="evenodd" d="M174.678 139.453C187.197 162.101 197.72 178.407 206.247 188.37L219.119 185.841C210.827 134.267 186.816 96.2011 147.085 71.645H143.887L140.071 71.645C124.169 126.012 119.785 162.237 126.919 180.32H182.198C181.324 167.089 178.519 153.096 174.678 139.453Z" fill="#FF6D6D"/>
</svg>
