<svg width="84" height="134" viewBox="0 0 84 134" fill="none" xmlns="http://www.w3.org/2000/svg">
<path d="M37.2268 133.724C40.575 122.941 34.6615 117.76 26.5801 113.3C20.6425 110.03 15.1626 105.883 9.70678 101.82C4.55204 97.9851 1.14367 92.8641 0.156076 86.3848C-0.831513 79.8213 2.93818 75.8784 9.4659 76.792C14.0305 77.4291 18.5228 78.4509 23.1838 78.1264C31.9998 77.5253 34.3002 73.4021 29.7597 65.9491C23.798 56.188 16.9692 47.0641 9.40568 38.4811C8.394 37.3271 6.79219 36.4976 6.93671 34.0814C11.2123 34.43 15.1265 35.9446 18.7637 37.7959C34.2881 45.7057 48.3432 44.4435 61.2421 32.1701C64.6745 28.9003 68.926 26.3639 73.6712 25.0656C74.972 24.717 76.5617 23.7553 77.5855 25.1257C78.6573 26.5322 77.2362 27.6982 76.4293 28.7801C71.3709 35.5359 66.9267 42.6404 63.6388 50.43C62.868 52.2692 61.6877 54.3849 63.0004 56.1279C64.5782 58.2316 66.6859 56.3563 68.5045 55.9356C78.284 53.6516 85.7752 61.2849 83.6314 71.4547C81.849 79.8934 76.899 86.8175 72.3705 93.8498C65.084 105.15 56.0392 115.091 47.2472 125.213C44.6458 128.206 41.8877 131.067 39.1899 134C38.5275 133.904 37.8772 133.808 37.2147 133.724H37.2268Z" fill="url(#paint0_linear_100_16518)"/>
<path d="M40.187 0.00255297C47.8589 -0.141699 54.0012 5.84476 54.0012 13.4781C54.0012 21.2437 48.1961 27.2181 40.464 27.3984C33.1896 27.5787 26.6137 21.1956 26.433 13.7786C26.2644 6.40975 32.5151 0.146805 40.187 0.00255297Z" fill="url(#paint1_linear_100_16518)"/>
<defs>
<linearGradient id="paint0_linear_100_16518" x1="0" y1="79.2059" x2="84" y2="79.2059" gradientUnits="userSpaceOnUse">
<stop stop-color="#E65761"/>
<stop offset="1" stop-color="#F58255"/>
</linearGradient>
<linearGradient id="paint1_linear_100_16518" x1="26.4297" y1="13.7011" x2="54.0012" y2="13.7011" gradientUnits="userSpaceOnUse">
<stop stop-color="#E65761"/>
<stop offset="1" stop-color="#F58255"/>
</linearGradient>
</defs>
</svg>
