<svg width="139" height="139" viewBox="0 0 139 139" fill="none" xmlns="http://www.w3.org/2000/svg">
<path fill-rule="evenodd" clip-rule="evenodd" d="M15.5117 94.6614L22.3908 104.14L69.8491 69.695L62.9701 60.2167L15.5117 94.6614Z" fill="white"/>
<path fill-rule="evenodd" clip-rule="evenodd" d="M6.22122 97.8596L16.4713 111.982C16.894 112.565 17.7089 112.694 18.2914 112.271L24.4218 107.822C25.0043 107.399 25.1336 106.584 24.7111 106.002L14.461 91.8794C14.0382 91.2967 13.2232 91.1674 12.6409 91.5901L6.51035 96.0394C5.92801 96.4621 5.79851 97.2771 6.22122 97.8596Z" fill="#FF6D6D"/>
<path fill-rule="evenodd" clip-rule="evenodd" d="M52.9756 39.2321L87.1716 86.3477C87.6782 87.0456 88.6547 87.2008 89.3525 86.6942L116.724 66.8279C117.423 66.3213 117.578 65.3449 117.071 64.6468L82.8752 17.5313C82.3686 16.8333 81.392 16.6783 80.6941 17.1847L53.3222 37.051C52.6243 37.5576 52.469 38.5341 52.9756 39.2321Z" fill="#F2F2F7"/>
<path fill-rule="evenodd" clip-rule="evenodd" d="M58.588 57.5908L70.9885 74.6764C71.5 75.3811 72.4857 75.5376 73.1905 75.0263L75.8246 73.1143C76.5294 72.603 76.6858 71.617 76.1745 70.9123L63.7739 53.8269C63.2625 53.1223 62.2768 52.9656 61.572 53.477L58.9377 55.3889C58.2331 55.9004 58.0764 56.8862 58.588 57.5908Z" fill="#FF6D6D"/>
<path fill-rule="evenodd" clip-rule="evenodd" d="M44.9317 34.1633L48.9776 39.7378C49.5158 40.4791 50.5531 40.6441 51.2947 40.1057L84.2257 16.2048C84.967 15.6666 85.1318 14.6293 84.5936 13.8878L80.5477 8.3134C80.0097 7.57192 78.9724 7.40707 78.231 7.94526L45.2998 31.8462C44.5584 32.3844 44.3935 33.4218 44.9317 34.1633Z" fill="#FF6D6D"/>
<path fill-rule="evenodd" clip-rule="evenodd" d="M85.4512 89.9911L89.4971 95.5656C90.0353 96.307 91.0728 96.4719 91.8142 95.9337L124.745 72.0326C125.487 71.4946 125.652 70.4571 125.113 69.7156L121.067 64.1414C120.529 63.3997 119.492 63.235 118.75 63.7731L85.8195 87.674C85.0779 88.2124 84.913 89.2496 85.4512 89.9911Z" fill="#FF6D6D"/>
<path fill-rule="evenodd" clip-rule="evenodd" d="M131.111 131.391H71.5423C70.4457 131.391 69.5566 130.502 69.5566 129.406V117.634C69.5566 116.538 70.4457 115.649 71.5423 115.649H131.111C132.207 115.649 133.096 116.538 133.096 117.634V129.406C133.096 130.502 132.207 131.391 131.111 131.391Z" fill="white"/>
<path fill-rule="evenodd" clip-rule="evenodd" d="M123.937 115.811H78.7139C78.0424 115.811 77.498 115.267 77.498 114.595V109.156C77.498 108.484 78.0424 107.94 78.7139 107.94H123.937C124.608 107.94 125.153 108.484 125.153 109.156V114.595C125.153 115.267 124.608 115.811 123.937 115.811Z" fill="#434242"/>
</svg>
